<?xml version="1.0" encoding="utf-8"?>
<!-- Generator: Adobe Illustrator 26.2.1, SVG Export Plug-In . SVG Version: 6.00 Build 0)  -->
<svg version="1.1" id="Layer_1" xmlns="http://www.w3.org/2000/svg" xmlns:xlink="http://www.w3.org/1999/xlink" x="0px" y="0px"
	 width="1651.8px" height="800px" viewBox="0 0 1651.8 800" style="enable-background:new 0 0 1651.8 800;" xml:space="preserve">
<style type="text/css">
	.st0{opacity:5.000000e-02;}
	.st1{fill:#009B6C;}
	.st2{fill:#070707;}
	.st3{fill:#FFFFFF;}
	.st4{fill:#E24D4D;}
</style>
<g class="st0">
	<path class="st1" d="M1634.1,667.1c0,65.4-67.2,118.3-150,118.3c-82.8,0-150-53-150-118.3c0-25.7,10.4-49.6,28.1-69
		c2-2.2,2.1-5.6,0.2-7.9c-9.3-11.1-14.9-25.7-14.9-41.6c0.1-35,28-63.6,61.8-63.2c33.5,0.3,60.6,28.6,60.6,63.3c0,0.2,0,0.3,0,0.5
		c4.7-0.3,9.4-0.5,14.2-0.5c4.8,0,9.6,0.2,14.2,0.5c0-0.2,0-0.4,0-0.5c0-34.8,27.1-63,60.7-63.3c33.8-0.3,61.7,28.3,61.8,63.3
		c0,15.9-5.6,30.4-14.9,41.5c-1.9,2.3-1.9,5.7,0.2,7.9C1623.7,617.6,1634.1,641.4,1634.1,667.1z"/>
	<path class="st2" d="M1537.2,731c-15.6,9.2-33.8,15.6-53.1,15.6c-19.3,0-37.5-6.4-53-15.6c-31.8-18.8-52.5-49.5-49.1-61.2
		c0.1-0.4,0.3-0.8,0.5-1.2c5.3-10.4,33.3,4.5,101.6,4.6c68.4,0.1,96.5-14.8,101.8-4.4c0.2,0.3,0.3,0.7,0.4,1.1
		C1589.8,681.4,1569.1,712.1,1537.2,731z"/>
	<ellipse class="st3" cx="1411.3" cy="551.8" rx="37.6" ry="38.9"/>
	<ellipse class="st3" cx="1556.9" cy="551.8" rx="37.6" ry="38.9"/>
	<ellipse class="st2" cx="1469.6" cy="635.4" rx="8.2" ry="11.7"/>
	<ellipse class="st2" cx="1498.5" cy="635.4" rx="8.2" ry="11.7"/>
	<path class="st4" d="M1537.2,731c-15.6,9.2-33.8,15.6-53.1,15.6c-19.3,0-37.5-6.4-53-15.6c9.4-7.5,29.6-12.6,53-12.6
		C1507.6,718.3,1527.8,723.5,1537.2,731z"/>
	<path class="st3" d="M1586.2,669.8c-11.7,14.8-53,25.8-102.1,25.8c-49.2,0-90.5-11-102.2-25.9c0.1-0.4,0.3-0.8,0.5-1.2
		c5.3-10.4,33.3,4.5,101.6,4.6c68.4,0.1,96.5-14.8,101.8-4.4C1586,669.1,1586.1,669.4,1586.2,669.8z"/>
	<ellipse class="st2" cx="1411.3" cy="551.8" rx="17" ry="17.6"/>
	<ellipse class="st2" cx="1556.9" cy="551.8" rx="17" ry="17.6"/>
</g>
</svg>
