<?xml version="1.0" encoding="utf-8"?>
<!-- Generator: Adobe Illustrator 26.2.1, SVG Export Plug-In . SVG Version: 6.00 Build 0)  -->
<svg version="1.1" id="Layer_1" xmlns="http://www.w3.org/2000/svg" xmlns:xlink="http://www.w3.org/1999/xlink" x="0px" y="0px"
	 width="24px" height="24px" viewBox="0 0 24 24" style="enable-background:new 0 0 24 24;" xml:space="preserve">
<style type="text/css">
	.st0{opacity:0.3;fill:url(#SVGID_1_);enable-background:new    ;}
	.st1{opacity:0.4;fill:url(#SVGID_00000013894360988032155830000004221128575957175469_);enable-background:new    ;}
	.st2{fill:#302A22;}
	.st3{fill:#7852FF;}
	.st4{fill:#FFF6E3;}
	.st5{fill:#3A2B08;}
	.st6{fill:#FF4300;}
	.st7{fill:#FFFFFF;}
</style>
<linearGradient id="SVGID_1_" gradientUnits="userSpaceOnUse" x1="-9.094947e-13" y1="26" x2="-9.094947e-13" y2="26" gradientTransform="matrix(1 0 0 -1 12.51 29.923)">
	<stop  offset="0" style="stop-color:#2464F4"/>
	<stop  offset="1" style="stop-color:#1DB2D5"/>
</linearGradient>
<path class="st0" d="M12.51,3.923"/>
<linearGradient id="SVGID_00000128457188180601801960000014910282722732015758_" gradientUnits="userSpaceOnUse" x1="-9.094947e-13" y1="26" x2="-9.094947e-13" y2="26" gradientTransform="matrix(1 0 0 -1 12.496 29.924)">
	<stop  offset="0" style="stop-color:#2464F4"/>
	<stop  offset="1" style="stop-color:#1DB2D5"/>
</linearGradient>
<path style="opacity:0.4;fill:url(#SVGID_00000128457188180601801960000014910282722732015758_);enable-background:new    ;" d="
	M12.496,3.924"/>
<circle class="st2" cx="12" cy="12" r="12"/>
<g>
	<g>
		<g>
			<path class="st3" d="M21.245,15.792c-0.271,2.775-2.974,3.98-5.216,5.585c-1.191,0.853-2.571,1.423-4.029,1.424
				c-1.458,0-2.838-0.57-4.029-1.423c-2.243-1.604-4.946-2.809-5.217-5.584c-0.191-1.951,0.284-3.822,0.891-5.284
				C2.723,7.802,2.905,1.744,3.865,1.241c0.648-0.339,3.598,1.511,5.66,3.736c0.797-0.105,1.635-0.179,2.474-0.18
				c0.839,0,1.677,0.075,2.474,0.179c2.062-2.225,5.011-4.076,5.66-3.737c0.96,0.503,1.143,6.559,0.221,9.267
				C20.961,11.97,21.436,13.841,21.245,15.792z"/>
		</g>
		<g>
			<g>
				<path class="st4" d="M7.737,5.424C6.491,5.977,5.576,7.001,4.813,8.239C4.648,8.507,4.235,8.404,4.214,8.09
					C4.076,5.942,4.31,3.6,4.834,3.326c0.368-0.193,1.663,0.497,2.973,1.55C7.995,5.027,7.957,5.326,7.737,5.424z"/>
			</g>
			<g>
				<path class="st4" d="M19.186,8.238C18.423,7,17.508,5.976,16.262,5.423c-0.221-0.098-0.258-0.396-0.07-0.547
					c1.31-1.053,2.604-1.743,2.972-1.551c0.524,0.274,0.758,2.615,0.62,4.763C19.764,8.402,19.351,8.506,19.186,8.238z"/>
			</g>
		</g>
		<path class="st4" d="M21.268,15.483c-0.176-0.868-0.549-1.588-1.26-1.878c-2.372-0.968-5.14,1.472-7.123,1.433
			c-0.04-0.001-0.081-0.003-0.122-0.006c-0.508-0.036-1.019-0.036-1.528,0c-0.041,0.003-0.081,0.005-0.122,0.006
			c-1.982,0.039-4.751-2.4-7.123-1.432c-0.711,0.29-1.084,1.011-1.26,1.879c0.006,0.103,0.012,0.206,0.023,0.309
			c0.271,2.774,2.926,4.032,5.169,5.636c1.192,0.852,2.619,1.371,4.077,1.371c1.458,0,2.837-0.571,4.029-1.424
			c2.242-1.604,4.945-2.81,5.216-5.585C21.256,15.688,21.261,15.586,21.268,15.483z"/>
		<path class="st5" d="M16.231,16.569c-0.113-0.108-0.291-0.101-0.396,0.014c-0.412,0.451-1.668,1.523-2.523,1.077
			c-0.631-0.328-0.876-0.933-0.971-1.377c0.395-0.089,0.748-0.291,1.063-0.592c0.299-0.285,0.448-0.702,0.364-1.11
			c-0.002-0.011-0.005-0.023-0.007-0.034c-0.104-0.458-0.49-0.797-0.946-0.867C12.545,13.64,12.278,13.62,12,13.62
			c-0.278,0-0.545,0.02-0.814,0.061c-0.457,0.07-0.843,0.41-0.946,0.867c-0.003,0.011-0.005,0.022-0.007,0.034
			c-0.084,0.408,0.066,0.825,0.364,1.11c0.315,0.301,0.668,0.503,1.063,0.592c-0.095,0.444-0.341,1.049-0.971,1.377
			c-0.853,0.444-2.111-0.627-2.523-1.077c-0.106-0.115-0.283-0.122-0.396-0.014c-0.113,0.107-0.12,0.288-0.014,0.403
			c0.037,0.04,0.505,0.545,1.141,0.93c0.454,1.024,1.603,3.21,3.148,3.276c1.457,0.063,2.851-2.493,3.319-3.445
			c0.501-0.349,0.85-0.727,0.882-0.761C16.35,16.857,16.344,16.677,16.231,16.569z M12.062,20.152
			c-0.892-0.038-1.605-1.029-2.037-1.824c0.07,0.008,0.14,0.013,0.21,0.013c0.06,0,0.12-0.003,0.181-0.01
			c0.178-0.02,0.356-0.071,0.529-0.161c0.542-0.282,0.805-0.286,1.096-0.286c0.32,0,0.474,0.003,1.015,0.286
			c0.171,0.089,0.347,0.14,0.524,0.16c0.062,0.007,0.124,0.011,0.186,0.011c0.127,0,0.254-0.014,0.379-0.04
			C13.657,19.129,12.873,20.187,12.062,20.152z"/>
		<path class="st6" d="M14.144,18.3c-0.487,0.829-1.271,1.887-2.082,1.852c-0.892-0.038-1.605-1.029-2.037-1.824
			c0.07,0.008,0.14,0.013,0.21,0.013c0.239,0,0.478-0.05,0.709-0.171c0.542-0.282,0.805-0.286,1.096-0.286
			c0.32,0,0.474,0.003,1.015,0.286c0.231,0.12,0.47,0.171,0.709,0.171C13.892,18.34,14.019,18.326,14.144,18.3z"/>
		<g>
			<path class="st7" d="M13.58,18.329c-0.083,0.178-0.233,0.459-0.347,0.467c-0.111,0.007-0.245-0.252-0.324-0.43
				c-0.613,0.073-1.221,0.073-1.823,0c-0.079,0.178-0.213,0.437-0.323,0.429c-0.114-0.008-0.263-0.288-0.347-0.466
				c0.178-0.02,0.356-0.071,0.529-0.161c0.542-0.282,0.805-0.286,1.096-0.286c0.32,0,0.474,0.003,1.015,0.286
				C13.227,18.258,13.403,18.309,13.58,18.329z"/>
		</g>
		<g>
			<g>
				<path class="st5" d="M16.464,11.669c0,0.807-1.249,1.029-1.959,1.029c-0.71,0-1.285-0.196-1.285-1.004
					c0-0.807,0.912-1.462,1.622-1.462C15.551,10.232,16.463,10.862,16.464,11.669z"/>
				<path class="st7" d="M15.107,10.577c-0.133-0.007-0.245,0.101-0.239,0.236c0.009,0.203,0.093,0.488,0.472,0.58
					c0.184,0.045,0.335,0.062,0.457,0.065c0.195,0.005,0.297-0.232,0.167-0.379C15.766,10.858,15.461,10.597,15.107,10.577z"/>
			</g>
			<g>
				<path class="st5" d="M7.214,11.67c0,0.807,1.249,1.028,1.959,1.028c0.71,0,1.285-0.196,1.285-1.004
					c0-0.807-0.912-1.462-1.622-1.462S7.213,10.863,7.214,11.67z"/>
				<path class="st7" d="M9.116,10.578c-0.133-0.007-0.245,0.101-0.239,0.236c0.009,0.203,0.093,0.488,0.472,0.58
					c0.184,0.045,0.335,0.062,0.457,0.065c0.195,0.005,0.297-0.232,0.167-0.379C9.775,10.858,9.47,10.597,9.116,10.578z"/>
			</g>
			<path class="st4" d="M10.455,8.858c-0.017,0.149-0.11,0.264-0.139,0.297C10.146,9.351,9.89,9.383,9.748,9.4
				c-0.854,0.104-1.281,0.157-1.29,0.157C7.323,9.633,6.956,9.801,6.703,9.533C6.676,9.505,6.571,9.39,6.56,9.226
				C6.517,8.567,8.05,8.074,8.116,8.053c0.447-0.14,1.07-0.335,1.657-0.04C10.058,8.157,10.495,8.497,10.455,8.858z"/>
			<path class="st4" d="M13.223,8.755c0.018,0.154,0.113,0.275,0.141,0.31c0.171,0.206,0.425,0.244,0.566,0.265
				c0.847,0.127,1.27,0.191,1.279,0.191c1.124,0.104,1.489,0.286,1.736,0.015c0.026-0.029,0.129-0.145,0.137-0.314
				c0.034-0.679-1.49-1.223-1.556-1.246c-0.445-0.155-1.064-0.37-1.64-0.079C13.606,8.041,13.178,8.382,13.223,8.755z"/>
		</g>
	</g>
</g>
</svg>
