<svg id="Layer_1" data-name="Layer 1" xmlns="http://www.w3.org/2000/svg" viewBox="0 0 512 512"><path d="M512,310.06C512,421.59,397.38,512,256,512S0,421.59,0,310.06c0-43.94,17.79-84.6,48-117.74a10.23,10.23,0,0,0,.3-13.47,109.83,109.83,0,0,1-25.47-70.92C22.91,48.18,70.54-.55,128.28,0c57.25.55,103.51,48.75,103.51,108.11,0,.3,0,.6,0,.89q12-.89,24.23-.89t24.31.91c0-.3,0-.61,0-.91C280.31,48.74,326.59.53,383.85,0c57.76-.53,105.38,48.24,105.44,108a109.84,109.84,0,0,1-25.51,70.9,10.24,10.24,0,0,0,.29,13.48C494.24,225.51,512,266.15,512,310.06Z" fill="#009b6c"/><path d="M346.58,419.09C320,434.79,289,445.7,256,445.68S192,434.75,165.49,419c-54.28-32.16-89.64-84.41-83.87-104.42a11.83,11.83,0,0,1,.81-2.11c9-17.74,56.86,7.66,173.48,7.79s164.71-25.22,173.67-7.44a11,11,0,0,1,.73,1.84C436.44,334.5,401,386.89,346.58,419.09Z"/><ellipse cx="131.78" cy="113.32" rx="64.18" ry="66.41" fill="#fff"/><ellipse cx="380.22" cy="113.32" rx="64.18" ry="66.41" fill="#fff"/><ellipse cx="231.34" cy="256" rx="14" ry="20"/><ellipse cx="280.66" cy="256" rx="14" ry="20"/><path d="M346.58,419.09C320,434.79,289,445.7,256,445.68S192,434.75,165.49,419c16-12.73,50.51-21.54,90.51-21.54S330.62,406.33,346.58,419.09Z" fill="#e24d4d"/><path d="M430.31,314.7c-20,25.34-90.46,44.05-174.31,44.05S101.53,340,81.62,314.62a11.83,11.83,0,0,1,.81-2.11c9-17.74,56.86,7.66,173.48,7.79s164.71-25.22,173.67-7.44A11,11,0,0,1,430.31,314.7Z" fill="#fff"/><ellipse cx="131.78" cy="113.32" rx="29" ry="30"/><ellipse cx="380.22" cy="113.32" rx="29" ry="30"/></svg>