<?xml version="1.0" encoding="utf-8"?>
<!-- Generator: Adobe Illustrator 26.2.1, SVG Export Plug-In . SVG Version: 6.00 Build 0)  -->
<svg version="1.1" id="Layer_1" xmlns="http://www.w3.org/2000/svg" xmlns:xlink="http://www.w3.org/1999/xlink" x="0px" y="0px"
	 width="32px" height="32px" viewBox="0 0 32 32" style="enable-background:new 0 0 32 32;" xml:space="preserve">
<style type="text/css">
	.st0{fill:#312B23;}
	.st1{fill:#BA9737;}
	.st2{fill:#FFF6E4;}
	.st3{fill:#392C14;}
	.st4{fill:#F04923;}
	.st5{fill:#FFFFFF;}
</style>
<circle class="st0" cx="16" cy="16" r="16"/>
<g>
	<g>
		<g>
			<path class="st1" d="M28.327,21.056c-0.361,3.699-3.965,5.307-6.955,7.446c-1.589,1.137-3.428,1.898-5.372,1.898
				c-1.944,0-3.783-0.761-5.372-1.897c-2.99-2.139-6.594-3.746-6.956-7.445c-0.254-2.601,0.378-5.096,1.188-7.046
				C3.63,10.402,3.873,2.326,5.153,1.655C6.017,1.203,9.95,3.67,12.7,6.637c1.063-0.14,2.18-0.239,3.299-0.24
				c1.119,0,2.236,0.1,3.299,0.239c2.75-2.967,6.682-5.435,7.546-4.983c1.28,0.67,1.524,8.746,0.294,12.356
				C27.948,15.96,28.581,18.454,28.327,21.056z"/>
		</g>
		<g>
			<g>
				<path class="st2" d="M10.316,7.232c-1.662,0.738-2.881,2.104-3.899,3.754c-0.22,0.357-0.771,0.219-0.798-0.199
					C5.435,7.923,5.747,4.801,6.445,4.435c0.491-0.257,2.217,0.663,3.964,2.067C10.66,6.703,10.61,7.101,10.316,7.232z"/>
			</g>
			<g>
				<path class="st2" d="M25.581,10.984c-1.018-1.65-2.237-3.016-3.899-3.753c-0.294-0.131-0.344-0.528-0.093-0.73
					c1.746-1.404,3.473-2.324,3.963-2.067c0.698,0.366,1.011,3.487,0.827,6.351C26.352,11.203,25.802,11.341,25.581,10.984z"/>
			</g>
		</g>
		<path class="st2" d="M28.357,20.644c-0.234-1.157-0.733-2.118-1.68-2.505c-3.163-1.29-6.853,1.962-9.497,1.911
			c-0.054-0.001-0.108-0.004-0.162-0.007c-0.678-0.048-1.359-0.048-2.037,0c-0.054,0.004-0.108,0.006-0.162,0.007
			c-2.643,0.052-6.334-3.2-9.497-1.909c-0.947,0.387-1.446,1.348-1.68,2.505c0.009,0.137,0.017,0.274,0.03,0.412
			c0.362,3.699,3.902,5.376,6.892,7.515c1.589,1.137,3.492,1.828,5.436,1.828c1.944,0,3.783-0.761,5.372-1.898
			c2.99-2.139,6.593-3.747,6.954-7.446C28.341,20.918,28.349,20.781,28.357,20.644z"/>
		<path class="st3" d="M21.641,22.093c-0.151-0.144-0.388-0.134-0.528,0.019c-0.549,0.601-2.224,2.03-3.364,1.436
			c-0.841-0.438-1.169-1.244-1.295-1.836c0.527-0.118,0.997-0.388,1.417-0.789c0.398-0.38,0.598-0.936,0.486-1.48
			c-0.003-0.015-0.006-0.03-0.01-0.045c-0.139-0.61-0.653-1.063-1.262-1.156C16.726,18.187,16.371,18.16,16,18.16
			s-0.727,0.027-1.085,0.082c-0.609,0.094-1.123,0.546-1.262,1.157c-0.003,0.015-0.007,0.03-0.01,0.045
			c-0.112,0.544,0.087,1.1,0.486,1.48c0.42,0.402,0.891,0.671,1.418,0.789c-0.127,0.592-0.454,1.398-1.295,1.836
			c-1.137,0.592-2.814-0.836-3.365-1.436c-0.141-0.153-0.377-0.162-0.528-0.019c-0.151,0.143-0.16,0.384-0.019,0.537
			c0.049,0.054,0.673,0.727,1.521,1.24c0.606,1.365,2.138,4.28,4.197,4.368c1.943,0.084,3.801-3.324,4.425-4.593
			c0.668-0.466,1.134-0.969,1.176-1.015C21.8,22.476,21.792,22.236,21.641,22.093z M16.083,26.869
			c-1.189-0.051-2.14-1.373-2.716-2.433c0.093,0.011,0.186,0.017,0.28,0.017c0.08,0,0.161-0.004,0.241-0.013
			c0.238-0.027,0.474-0.094,0.705-0.214c0.723-0.376,1.074-0.381,1.462-0.381c0.426,0,0.631,0.004,1.354,0.381
			c0.228,0.119,0.462,0.186,0.698,0.213c0.082,0.01,0.165,0.014,0.247,0.014c0.169,0,0.338-0.019,0.506-0.053
			C18.209,25.505,17.164,26.916,16.083,26.869z"/>
		<path class="st4" d="M18.859,24.4c-0.65,1.105-1.695,2.516-2.776,2.469c-1.189-0.051-2.14-1.373-2.716-2.433
			c0.093,0.011,0.186,0.017,0.28,0.017c0.318,0,0.638-0.067,0.946-0.227c0.723-0.376,1.074-0.381,1.462-0.381
			c0.426,0,0.631,0.004,1.354,0.381c0.308,0.16,0.627,0.227,0.946,0.227C18.523,24.453,18.692,24.434,18.859,24.4z"/>
		<g>
			<path class="st5" d="M18.106,24.439c-0.111,0.238-0.311,0.613-0.463,0.623c-0.148,0.01-0.326-0.336-0.431-0.573
				c-0.818,0.098-1.628,0.097-2.43,0.001c-0.105,0.237-0.284,0.582-0.431,0.573c-0.152-0.01-0.351-0.384-0.463-0.622
				c0.238-0.027,0.474-0.094,0.705-0.214c0.723-0.376,1.074-0.381,1.462-0.381c0.426,0,0.631,0.004,1.354,0.381
				C17.636,24.344,17.87,24.412,18.106,24.439z"/>
		</g>
		<g>
			<g>
				<path class="st3" d="M21.951,15.559c0,1.077-1.666,1.372-2.612,1.372c-0.946,0-1.713-0.262-1.713-1.338
					c0-1.077,1.216-1.949,2.163-1.95C20.735,13.643,21.951,14.483,21.951,15.559z"/>
				<path class="st5" d="M20.142,14.103c-0.177-0.01-0.327,0.135-0.318,0.315c0.013,0.27,0.125,0.651,0.629,0.773
					c0.245,0.059,0.447,0.083,0.61,0.087c0.26,0.006,0.396-0.309,0.222-0.505C21.022,14.477,20.614,14.129,20.142,14.103z"/>
			</g>
			<g>
				<path class="st3" d="M9.618,15.56c0,1.077,1.666,1.371,2.612,1.371c0.946,0,1.713-0.262,1.713-1.339
					c0-1.077-1.217-1.949-2.163-1.949C10.834,13.644,9.618,14.484,9.618,15.56z"/>
				<path class="st5" d="M12.155,14.104c-0.177-0.01-0.327,0.135-0.318,0.315c0.013,0.27,0.125,0.651,0.629,0.773
					c0.245,0.059,0.447,0.083,0.61,0.087c0.26,0.006,0.396-0.309,0.222-0.505C13.034,14.478,12.626,14.129,12.155,14.104z"/>
			</g>
			<path class="st2" d="M13.94,11.81c-0.022,0.198-0.147,0.352-0.185,0.397c-0.226,0.261-0.568,0.303-0.758,0.326
				c-1.139,0.139-1.709,0.209-1.72,0.209c-1.513,0.101-2.002,0.325-2.339-0.032c-0.036-0.038-0.176-0.191-0.191-0.41
				c-0.058-0.878,1.987-1.536,2.075-1.563c0.597-0.187,1.427-0.446,2.209-0.053C13.411,10.876,13.993,11.329,13.94,11.81z"/>
			<path class="st2" d="M17.63,11.674c0.025,0.205,0.15,0.367,0.188,0.414c0.228,0.275,0.567,0.326,0.754,0.354
				c1.129,0.169,1.694,0.254,1.706,0.255c1.499,0.139,1.986,0.381,2.315,0.02c0.035-0.038,0.172-0.193,0.183-0.419
				c0.045-0.905-1.987-1.63-2.074-1.661c-0.593-0.206-1.418-0.493-2.187-0.105C18.142,10.721,17.571,11.175,17.63,11.674z"/>
		</g>
	</g>
</g>
</svg>
