<?xml version="1.0" encoding="utf-8"?>
<!-- Generator: Adobe Illustrator 26.2.1, SVG Export Plug-In . SVG Version: 6.00 Build 0)  -->
<svg version="1.1" id="Layer_1" xmlns="http://www.w3.org/2000/svg" xmlns:xlink="http://www.w3.org/1999/xlink" x="0px" y="0px"
	 width="1000px" height="1000px" viewBox="0 0 1000 1000" style="enable-background:new 0 0 1000 1000;" xml:space="preserve">
<style type="text/css">
	.st0{fill:#302A22;}
	.st1{fill:#ba973a;}
	.st2{fill:#FFF6E3;}
	.st3{fill:#3A2B08;}
	.st4{fill:#FF4300;}
	.st5{fill:#FFFFFF;}
</style>
<circle class="st0" cx="500" cy="500" r="500"/>
<g>
	<g>
		<g>
			<path class="st1" d="M885.227,657.985C873.941,773.59,761.324,823.829,667.895,890.681
				c-49.644,35.532-107.136,59.31-167.868,59.319c-60.741,0.009-118.233-23.769-167.886-59.292
				c-93.438-66.834-206.064-117.054-217.359-232.66c-7.947-81.279,11.826-159.238,37.116-220.177
				c-38.448-112.806-30.87-365.194,9.135-386.146c27.009-14.139,149.904,62.973,235.836,155.683
				c33.228-4.365,68.13-7.479,103.095-7.488c34.974,0,69.876,3.114,103.104,7.47c85.923-92.718,208.809-169.849,235.818-155.71
				c40.005,20.943,47.619,273.304,9.189,386.128C873.374,498.738,893.156,576.697,885.227,657.985z"/>
		</g>
		<g>
			<g>
				<path class="st2" d="M322.368,225.985c-51.927,23.061-90.033,65.739-121.831,117.318c-6.882,11.164-24.094,6.856-24.937-6.232
					c-5.767-89.492,3.98-187.052,25.806-198.487c15.335-8.024,69.283,20.714,123.869,64.593
					C333.11,209.476,331.556,221.904,322.368,225.985z"/>
			</g>
			<g>
				<path class="st2" d="M799.419,343.242c-31.809-51.568-69.921-94.238-121.849-117.288c-9.189-4.079-10.745-16.507-2.91-22.807
					c54.577-43.887,108.518-72.632,123.852-64.608c21.826,11.428,31.594,108.971,25.843,198.466
					C823.514,350.092,806.304,354.403,799.419,343.242z"/>
			</g>
		</g>
		<path class="st2" d="M886.163,645.117c-7.313-36.146-22.893-66.187-52.502-78.266c-98.833-40.322-214.167,61.316-296.771,59.709
			c-1.676-0.032-3.364-0.11-5.065-0.23c-21.176-1.491-42.474-1.489-63.65,0.005c-1.701,0.12-3.389,0.198-5.065,0.231
			c-82.604,1.62-197.953-100-296.78-59.664c-29.607,12.084-45.182,42.128-52.491,78.275c0.269,4.285,0.518,8.567,0.938,12.872
			c11.299,115.601,121.937,167.998,215.377,234.837c49.653,35.518,109.134,57.119,169.869,57.114
			c60.736-0.005,118.228-23.791,167.874-59.316c93.43-66.854,206.046-117.092,217.328-232.695
			C885.646,653.684,885.895,649.402,886.163,645.117z"/>
		<path class="st3" d="M676.278,690.391c-4.724-4.49-12.124-4.201-16.507,0.596c-17.163,18.781-69.495,63.451-105.132,44.887
			c-26.287-13.686-36.517-38.871-40.477-57.372c16.471-3.695,31.155-12.114,44.294-24.661
			c12.448-11.888,18.681-29.241,15.178-46.251c-0.099-0.47-0.198-0.939-0.305-1.409c-4.329-19.07-20.414-33.207-39.436-36.125
			c-11.19-1.725-22.309-2.556-33.903-2.556c-11.595,0-22.722,0.84-33.912,2.556c-19.022,2.927-35.107,17.064-39.427,36.143
			c-0.108,0.461-0.207,0.93-0.305,1.4c-3.494,17.01,2.73,34.363,15.187,46.251c13.139,12.547,27.832,20.967,44.303,24.652
			c-3.961,18.51-14.19,43.695-40.468,57.381c-35.529,18.51-87.942-26.116-105.141-44.869c-4.401-4.797-11.783-5.068-16.507-0.587
			c-4.715,4.472-4.984,11.987-0.593,16.793c1.545,1.68,21.034,22.719,47.546,38.736c18.932,42.665,66.81,133.741,131.159,136.496
			c60.721,2.629,118.792-103.867,138.29-143.533c20.872-14.562,35.43-30.28,36.75-31.726
			C681.262,702.388,681.002,694.863,676.278,690.391z M502.585,839.661c-37.154-1.599-66.891-42.891-84.862-76.017
			c2.901,0.343,5.82,0.524,8.739,0.524c2.506,0,5.02-0.135,7.526-0.416c7.436-0.831,14.828-2.945,22.021-6.694
			c22.578-11.762,33.553-11.906,45.677-11.906c13.319,0,19.731,0.136,42.31,11.897c7.131,3.713,14.45,5.827,21.824,6.667
			c2.578,0.298,5.155,0.443,7.733,0.443c5.29,0,10.571-0.596,15.798-1.662C569.044,797.023,536.372,841.124,502.585,839.661z"/>
		<path class="st4" d="M589.351,762.497c-20.306,34.526-52.979,78.627-86.766,77.164c-37.154-1.599-66.891-42.891-84.862-76.017
			c2.901,0.343,5.82,0.524,8.739,0.524c9.951,0,19.929-2.096,29.547-7.109c22.578-11.762,33.553-11.906,45.677-11.906
			c13.319,0,19.731,0.136,42.31,11.897c9.628,5.014,19.597,7.109,29.557,7.109C578.843,764.159,584.124,763.563,589.351,762.497z"/>
		<g>
			<path class="st5" d="M565.82,763.716c-3.476,7.435-9.708,19.142-14.468,19.458c-4.616,0.307-10.202-10.506-13.481-17.904
				c-25.56,3.053-50.868,3.026-75.943,0.018c-3.278,7.398-8.864,18.202-13.472,17.895c-4.76-0.316-10.975-11.987-14.468-19.431
				c7.436-0.831,14.828-2.945,22.021-6.694c22.578-11.762,33.553-11.906,45.677-11.906c13.319,0,19.731,0.136,42.31,11.897
				C551.127,760.762,558.447,762.876,565.82,763.716z"/>
		</g>
		<g>
			<g>
				<path class="st3" d="M685.98,486.226c0.002,33.643-52.05,42.86-81.621,42.862c-29.571,0.002-53.543-8.177-53.546-41.821
					c-0.003-33.644,38.008-60.92,67.578-60.922C647.962,426.342,685.977,452.582,685.98,486.226z"/>
				<path class="st5" d="M629.45,440.717c-5.546-0.302-10.206,4.217-9.943,9.831c0.394,8.438,3.893,20.337,19.668,24.161
					c7.662,1.857,13.972,2.591,19.048,2.711c8.122,0.192,12.381-9.671,6.938-15.775C656.924,452.406,644.193,441.521,629.45,440.717
					z"/>
			</g>
			<g>
				<path class="st3" d="M300.564,486.255c0.002,33.643,52.056,42.852,81.627,42.85c29.57-0.002,53.541-8.185,53.539-41.829
					c-0.003-33.643-38.018-60.914-67.588-60.912C338.572,426.366,300.561,452.611,300.564,486.255z"/>
				<path class="st5" d="M379.832,440.736c-5.545-0.303-10.206,4.217-9.943,9.831c0.395,8.438,3.893,20.337,19.668,24.161
					c7.662,1.857,13.972,2.591,19.049,2.711c8.122,0.192,12.38-9.671,6.938-15.775C407.306,452.425,394.576,441.54,379.832,440.736z
					"/>
			</g>
			<path class="st2" d="M435.623,369.075c-0.69,6.2-4.587,11.015-5.781,12.393c-7.073,8.168-17.763,9.471-23.68,10.193
				c-35.59,4.347-53.392,6.521-53.764,6.545c-47.289,3.154-62.565,10.163-73.106-0.991c-1.122-1.187-5.506-5.956-5.956-12.81
				c-1.799-27.435,62.092-47.995,64.835-48.853c18.645-5.833,44.594-13.951,69.03-1.66
				C419.078,339.866,437.296,354.031,435.623,369.075z"/>
			<path class="st2" d="M550.948,364.797c0.766,6.415,4.688,11.474,5.887,12.923c7.11,8.591,17.707,10.179,23.573,11.059
				c35.281,5.295,52.93,7.943,53.298,7.977c46.844,4.329,62.057,11.911,72.34,0.638c1.094-1.2,5.37-6.023,5.722-13.088
				c1.413-28.278-62.096-50.951-64.822-51.899c-18.531-6.444-44.322-15.413-68.341-3.281
				C566.93,335.024,549.09,349.231,550.948,364.797z"/>
		</g>
	</g>
</g>
<g>
</g>
<g>
</g>
<g>
</g>
<g>
</g>
<g>
</g>
</svg>
