<?xml version="1.0" encoding="utf-8"?>
<!-- Generator: Adobe Illustrator 26.2.1, SVG Export Plug-In . SVG Version: 6.00 Build 0)  -->
<svg version="1.1" id="Layer_1" xmlns="http://www.w3.org/2000/svg" xmlns:xlink="http://www.w3.org/1999/xlink" x="0px" y="0px"
	 width="32px" height="32px" viewBox="0 0 32 32" style="enable-background:new 0 0 32 32;" xml:space="preserve">
<style type="text/css">
	.st0{fill:#009B6C;}
	.st1{fill:#FFFFFF;}
	.st2{fill:#E24D4D;}
</style>
<g>
	<path class="st0" d="M32,19.4c0,7-7.2,12.6-16,12.6C7.2,32,0,26.3,0,19.4c0-2.7,1.1-5.3,3-7.4c0.2-0.2,0.2-0.6,0-0.8
		C2,10,1.4,8.4,1.4,6.7C1.4,3,4.4,0,8,0c3.6,0,6.5,3,6.5,6.8c0,0,0,0,0,0.1c0.5,0,1-0.1,1.5-0.1c0.5,0,1,0,1.5,0.1c0,0,0,0,0-0.1
		C17.5,3,20.4,0,24,0c3.6,0,6.6,3,6.6,6.7c0,1.7-0.6,3.2-1.6,4.4c-0.2,0.2-0.2,0.6,0,0.8C30.9,14.1,32,16.6,32,19.4z"/>
	<path d="M21.7,26.2c-1.7,1-3.6,1.7-5.7,1.7c-2.1,0-4-0.7-5.7-1.7c-3.4-2-5.6-5.3-5.2-6.5c0,0,0-0.1,0.1-0.1C5.7,18.4,8.7,20,16,20
		c7.3,0,10.3-1.6,10.9-0.5c0,0,0,0.1,0,0.1C27.3,20.9,25.1,24.2,21.7,26.2z"/>
	<ellipse class="st1" cx="8.2" cy="7.1" rx="4" ry="4.2"/>
	<ellipse class="st1" cx="23.8" cy="7.1" rx="4" ry="4.2"/>
	<ellipse cx="14.5" cy="16" rx="0.9" ry="1.2"/>
	<ellipse cx="17.5" cy="16" rx="0.9" ry="1.2"/>
	<path class="st2" d="M21.7,26.2c-1.7,1-3.6,1.7-5.7,1.7c-2.1,0-4-0.7-5.7-1.7c1-0.8,3.2-1.3,5.7-1.3C18.5,24.8,20.7,25.4,21.7,26.2
		z"/>
	<path class="st1" d="M26.9,19.7c-1.2,1.6-5.7,2.8-10.9,2.8c-5.2,0-9.7-1.2-10.9-2.8c0,0,0-0.1,0.1-0.1C5.7,18.4,8.7,20,16,20
		c7.3,0,10.3-1.6,10.9-0.5C26.9,19.6,26.9,19.6,26.9,19.7z"/>
	<ellipse cx="8.2" cy="7.1" rx="1.8" ry="1.9"/>
	<ellipse cx="23.8" cy="7.1" rx="1.8" ry="1.9"/>
</g>
</svg>
