<?xml version="1.0" encoding="utf-8"?>
<!-- Generator: Adobe Illustrator 26.2.1, SVG Export Plug-In . SVG Version: 6.00 Build 0)  -->
<svg version="1.1" id="Layer_1" xmlns="http://www.w3.org/2000/svg" xmlns:xlink="http://www.w3.org/1999/xlink" x="0px" y="0px"
	 width="128px" height="128px" viewBox="0 0 128 128" style="enable-background:new 0 0 128 128;" xml:space="preserve">
<style type="text/css">
	.st0{fill:#CBA68D;}
	.st1{fill:#2B2129;}
	.st2{fill:#BB9168;}
	.st3{fill:#E5D1B8;}
	.st4{fill:#CBA58C;}
	.st5{fill:#D7AF94;}
	.st6{fill:#C2956D;}
</style>
<g id="logoMark_00000034081593653380181850000008909024520088982675_">
	<a xlink:href="31.6811764705882" >
		<path id="logoMark__x3C_PathItem_x3E__00000039129455286795884960000003886904124401193860_" class="st0" d="M14.298,8.354
			c-2.08-0.106-4.231-0.216-6.056,1.295c-0.914,0.757-2.077,1.941-1.63,3.478c0.046,0.157,0.103,0.305,0.171,0.442
			c0.019,0.039,0.046,0.071,0.067,0.109c0.054,0.095,0.107,0.19,0.172,0.275c0.028,0.037,0.064,0.068,0.095,0.103
			c0.067,0.077,0.134,0.154,0.211,0.221c0.036,0.031,0.079,0.057,0.118,0.086c0.081,0.062,0.162,0.125,0.254,0.178
			c0.045,0.026,0.096,0.045,0.143,0.069c0.095,0.048,0.19,0.096,0.295,0.134c0.054,0.02,0.115,0.034,0.172,0.052
			c0.107,0.033,0.213,0.066,0.329,0.091c0.067,0.014,0.141,0.023,0.212,0.034c0.114,0.018,0.228,0.037,0.35,0.048
			c0.086,0.008,0.178,0.009,0.267,0.013c0.092,0.004,0.178,0.013,0.274,0.013c0.051,0,0.102-0.001,0.153-0.002
			c2.169-0.045,4.377-0.034,6.511-0.022c0.626,0.003,1.252,0.005,1.877,0.007c0.207,0.001,0.413,0.002,0.62,0.002
			c-0.014,0.106-0.031,0.209-0.048,0.313c-0.02,0.126-0.038,0.253-0.061,0.376c-0.023,0.126-0.05,0.247-0.076,0.37
			c-0.025,0.119-0.049,0.24-0.077,0.356c-0.029,0.121-0.062,0.237-0.094,0.354c-0.03,0.113-0.059,0.227-0.092,0.337
			c-0.035,0.115-0.074,0.224-0.111,0.336c-0.036,0.106-0.07,0.215-0.109,0.318c-0.041,0.109-0.086,0.214-0.129,0.32
			c-0.041,0.1-0.08,0.201-0.124,0.298c-0.047,0.103-0.098,0.202-0.147,0.302c-0.046,0.094-0.091,0.189-0.14,0.28
			c-0.053,0.098-0.11,0.19-0.166,0.285c-0.052,0.087-0.101,0.177-0.155,0.261c-0.059,0.092-0.123,0.179-0.185,0.267
			c-0.057,0.081-0.111,0.165-0.171,0.243c-0.065,0.086-0.136,0.167-0.204,0.251c-0.062,0.075-0.121,0.152-0.185,0.224
			c-0.072,0.081-0.149,0.157-0.225,0.235c-0.066,0.068-0.13,0.139-0.199,0.205c-0.079,0.076-0.164,0.146-0.246,0.219
			c-0.071,0.062-0.139,0.127-0.212,0.186c-0.087,0.071-0.18,0.137-0.271,0.204c-0.074,0.055-0.146,0.113-0.222,0.166
			c-0.096,0.067-0.199,0.127-0.299,0.19c-0.077,0.048-0.151,0.099-0.23,0.145c-0.108,0.063-0.222,0.12-0.334,0.179
			c-0.077,0.04-0.151,0.084-0.229,0.122c-0.128,0.063-0.263,0.119-0.396,0.177c-0.068,0.029-0.133,0.062-0.202,0.09
			c-0.205,0.083-0.417,0.161-0.634,0.233c-0.299,0.099-0.6,0.184-0.901,0.256c-0.096,0.023-0.192,0.036-0.288,0.057
			c-0.205,0.043-0.411,0.089-0.616,0.121c-0.138,0.022-0.277,0.033-0.415,0.05c-0.163,0.02-0.326,0.045-0.488,0.058
			c-0.166,0.014-0.331,0.019-0.496,0.027c-0.136,0.007-0.271,0.019-0.406,0.022c-0.178,0.005-0.355,0.001-0.532,0
			c-0.122-0.001-0.245,0.003-0.367,0c-0.186-0.005-0.371-0.016-0.556-0.025c-0.112-0.006-0.224-0.008-0.335-0.016
			c-0.186-0.012-0.37-0.029-0.555-0.045c-0.109-0.009-0.22-0.017-0.329-0.027c-0.164-0.016-0.327-0.035-0.49-0.053
			c-0.122-0.013-0.244-0.025-0.365-0.04C1.02,19.402-0.593,13.961,1.479,8.647C3.62,3.156,8.211,0.463,14.746,0.86
			c1.462,0.512,2.916,1.097,4.256,1.861c0.002,0.001,0.003,0.002,0.005,0.003c0.222,0.127,0.442,0.259,0.657,0.396
			c0.002,0.001,0.003,0.002,0.005,0.004c0.215,0.137,0.427,0.28,0.635,0.429c0.003,0.002,0.005,0.004,0.008,0.006
			c0.206,0.148,0.408,0.302,0.606,0.462c0.005,0.004,0.011,0.009,0.016,0.014c0.194,0.158,0.383,0.322,0.568,0.492
			c0.011,0.01,0.021,0.021,0.032,0.031c0.177,0.165,0.351,0.337,0.519,0.515c0.019,0.02,0.037,0.042,0.055,0.062
			c0.157,0.169,0.311,0.343,0.458,0.525c0.031,0.039,0.061,0.08,0.092,0.119c0.131,0.165,0.26,0.334,0.383,0.51
			c0.046,0.066,0.089,0.137,0.134,0.205c0.101,0.152,0.202,0.306,0.297,0.466c0.064,0.108,0.123,0.222,0.184,0.334
			c0.068,0.125,0.137,0.249,0.202,0.379c0.083,0.168,0.16,0.342,0.237,0.518c0.027,0.062,0.055,0.122,0.081,0.185L15.364,8.4
			C15.01,8.39,14.654,8.372,14.298,8.354"/>
	</a>
	<path id="logoMark__x3C_CompoundPathItem_x3E__00000000905623766117902880000011324718797664112298_" class="st1" d="M9.125,24.006
		c-0.071,0-0.141-0.001-0.212-0.001l-0.126-0.001l-0.134,0l-0.244-0.001c-0.153-0.004-0.306-0.012-0.459-0.02l-2.392-0.209
		L5.427,23.67C0.441,19.694-1.24,13.998,0.93,8.433C3.173,2.68,7.963-0.142,14.782,0.271l0.159,0.032
		c1.819,0.638,3.161,1.225,4.354,1.906c0.236,0.135,0.463,0.272,0.687,0.414c0.23,0.147,0.45,0.296,0.666,0.451
		c0.224,0.161,0.435,0.322,0.642,0.49c0.22,0.18,0.419,0.352,0.613,0.531c0.221,0.207,0.403,0.387,0.58,0.575
		c0.224,0.244,0.386,0.427,0.542,0.618l0.097,0.125c0.138,0.175,0.274,0.353,0.404,0.539l0.096,0.145
		c0.153,0.231,0.258,0.393,0.359,0.562c0.053,0.09,0.103,0.182,0.153,0.274l-0.449,0.409l0.517-0.283
		c0.063,0.116,0.127,0.231,0.186,0.351c0.088,0.178,0.17,0.361,0.25,0.546l0.423,1.007L15.365,8.99
		c-0.367-0.01-0.718-0.028-1.068-0.046l-0.032-0.002c-2.057-0.105-4-0.204-5.647,1.16c-1.266,1.049-1.71,1.931-1.44,2.86
		c0.036,0.123,0.081,0.238,0.134,0.346c0.092,0.151,0.13,0.223,0.178,0.286c0.126,0.137,0.171,0.191,0.225,0.238
		c0.154,0.113,0.213,0.159,0.28,0.198l0.112,0.052c0.079,0.04,0.152,0.078,0.234,0.108L8.31,14.796l0.174-0.563
		c0.094,0.029,0.181,0.057,0.276,0.077l0.184,0.029c0.114,0.018,0.208,0.034,0.308,0.043l0.489,0.024l0.141-0.001
		c2.221-0.046,4.509-0.034,6.527-0.022l3.17,0.011l-0.132,0.939l-0.544,0.067l0.521,0.08l-0.11,0.599l-0.614,0.056l0.577,0.119
		l-0.137,0.57l-0.616,0.018l0.57,0.151l-0.163,0.538l-0.616-0.018l0.56,0.185l-0.191,0.51l-0.613-0.06l0.547,0.221l-0.217,0.479
		l-0.607-0.103l0.53,0.258l-0.11,0.219c-0.043,0.079-0.088,0.156-0.134,0.232l-0.597-0.148l0.51,0.295l-0.122,0.204
		c-0.048,0.075-0.099,0.147-0.15,0.219L17.14,19.83l0.487,0.333l-0.134,0.19c-0.053,0.071-0.109,0.138-0.166,0.205l-0.568-0.238
		l0.459,0.37l-0.145,0.174c-0.059,0.066-0.121,0.129-0.183,0.193l-0.547-0.282l0.428,0.405l-0.155,0.158
		c-0.064,0.062-0.132,0.12-0.2,0.179l-0.525-0.323l0.395,0.438l-0.164,0.142c-0.071,0.058-0.146,0.113-0.221,0.168l-0.499-0.363
		l0.359,0.468l-0.169,0.125c-0.079,0.055-0.162,0.106-0.245,0.158l-0.471-0.4l0.321,0.494l-0.172,0.107
		c-0.09,0.053-0.184,0.102-0.278,0.15l-0.44-0.434l0.284,0.517l-0.167,0.088c-0.117,0.057-0.239,0.11-0.361,0.163l-0.377-0.478
		l0.246,0.536l-0.144,0.063c-0.217,0.088-0.44,0.17-0.67,0.246c-0.316,0.105-0.632,0.194-0.95,0.27l-0.199,0.04l-0.226-0.557
		l0.04,0.594c-0.188,0.04-0.377,0.08-0.565,0.109c-0.099,0.015-0.198,0.026-0.297,0.037l-0.28,0.034
		c-0.122,0.016-0.245,0.032-0.367,0.042c-0.126,0.011-0.252,0.017-0.378,0.022l-0.56,0.029C9.266,24.005,9.195,24.006,9.125,24.006z
		 M8.793,22.824l0.13,0.001c0.128,0.001,0.255,0.002,0.383-0.001l0.537-0.028c0.11-0.005,0.22-0.01,0.33-0.019
		c0.105-0.009,0.21-0.023,0.314-0.037l0.549-0.067c0.168-0.026,0.335-0.062,0.503-0.098l0.356-0.071
		c0.285-0.068,0.569-0.148,0.852-0.242c0.205-0.068,0.404-0.141,0.598-0.22l0.189-0.085c0.167-0.072,0.271-0.117,0.372-0.166
		l0.297-0.158c0.077-0.04,0.154-0.08,0.228-0.123l1.99-1.711l1.176-2.048l0.618-2.187l-1.811-0.007
		c-2.011-0.011-4.29-0.024-6.496,0.022l-0.166,0.002c-0.074,0-0.144-0.004-0.213-0.009L9.39,14.978l-0.021,0.589
		c-0.075-0.003-0.15-0.006-0.221-0.012c-0.13-0.011-0.251-0.031-0.373-0.05c-0.143-0.021-0.203-0.03-0.26-0.042
		c-0.131-0.028-0.253-0.065-0.374-0.102c-0.108-0.031-0.16-0.046-0.209-0.064c-0.125-0.046-0.238-0.102-0.351-0.158
		c-0.087-0.04-0.134-0.062-0.178-0.088c-0.112-0.065-0.212-0.139-0.311-0.215c-0.072-0.05-0.114-0.08-0.152-0.114
		c-0.095-0.083-0.178-0.175-0.26-0.269c-0.06-0.062-0.095-0.1-0.127-0.141c-0.082-0.107-0.151-0.225-0.218-0.345
		c-0.034-0.05-0.059-0.092-0.081-0.136c-0.083-0.168-0.153-0.347-0.209-0.539c-0.607-2.087,1.22-3.6,1.82-4.097
		c2.001-1.657,4.369-1.536,6.459-1.43l-0.027,0.589l0.03-0.589l0.029,0.001c0.342,0.017,0.684,0.035,1.024,0.045l7.875-0.022
		c-0.029-0.055-0.059-0.109-0.089-0.163L22.966,7.26c-0.089-0.151-0.184-0.296-0.28-0.44l-0.127-0.194
		c-0.116-0.166-0.237-0.325-0.361-0.481l0.371-0.485l-0.457,0.373c-0.14-0.172-0.285-0.336-0.434-0.496
		c-0.211-0.228-0.376-0.39-0.544-0.546c-0.206-0.192-0.386-0.348-0.571-0.498c-0.204-0.166-0.397-0.313-0.593-0.454
		c-0.206-0.148-0.409-0.285-0.616-0.417c-0.213-0.136-0.424-0.263-0.638-0.385c-1.116-0.637-2.377-1.19-4.086-1.793
		C8.414,1.091,4.058,3.655,2.028,8.861c-1.953,5.01-0.457,10.149,4.002,13.78l1.868,0.158c0.257,0.014,0.398,0.021,0.541,0.025
		l0.207,0.001L8.793,22.824z"/>
	<a xlink:href="85.5286274509804" >
		<path id="logoMark__x3C_PathItem_x3E__00000152944038477092415880000017230330216349235106_" class="st1" d="M15.642,8.918
			c0.059,0.046,0.117,0.095,0.175,0.142c0.056,0.045,0.112,0.09,0.167,0.136c0.057,0.048,0.114,0.097,0.17,0.146
			c0.056,0.048,0.112,0.095,0.167,0.144c0.05,0.044,0.099,0.091,0.148,0.136c0.061,0.056,0.122,0.11,0.182,0.167
			c0.003,0.003,0.005,0.005,0.008,0.008c0.529,0.507,1.014,1.069,1.399,1.707c0.001,0.002,0.002,0.004,0.003,0.005
			c0.075,0.124,0.145,0.251,0.212,0.381c0.003,0.005,0.006,0.01,0.008,0.015c0.064,0.126,0.124,0.256,0.18,0.388
			c0.004,0.01,0.009,0.019,0.013,0.028c0.053,0.128,0.102,0.259,0.146,0.392c0.005,0.015,0.011,0.03,0.016,0.045
			c0.042,0.127,0.078,0.258,0.111,0.391c0.006,0.024,0.013,0.046,0.019,0.07c0.03,0.124,0.053,0.252,0.075,0.381
			c0.006,0.035,0.014,0.069,0.019,0.104c0.018,0.118,0.029,0.24,0.04,0.362c0.005,0.051,0.011,0.1,0.014,0.152
			c0.007,0.108,0.008,0.22,0.009,0.331c0.001,0.054,0.002,0.108,0.002,0.163c-0.843-0.001-1.685-0.005-2.528-0.01
			c-0.596-0.003-1.206-0.004-1.81-0.006c-1.56-0.005-3.135-0.005-4.698,0.028c-1.699,0.027-2.685-0.512-3.023-1.675
			c-0.404-1.387,0.688-2.491,1.545-3.2c0.144-0.119,0.291-0.224,0.44-0.323c0.038-0.025,0.076-0.05,0.115-0.074
			c0.139-0.088,0.28-0.169,0.423-0.241c0.01-0.005,0.02-0.011,0.03-0.016c0.153-0.076,0.308-0.14,0.464-0.2
			c0.04-0.015,0.081-0.03,0.122-0.044c0.139-0.049,0.28-0.094,0.422-0.132c0.019-0.005,0.039-0.012,0.058-0.017
			c0.159-0.041,0.319-0.074,0.48-0.103c0.043-0.008,0.086-0.015,0.129-0.022c0.139-0.022,0.278-0.041,0.418-0.057
			c0.027-0.003,0.053-0.007,0.08-0.009c0.162-0.016,0.325-0.027,0.489-0.035c0.045-0.002,0.091-0.004,0.136-0.005
			c0.136-0.005,0.272-0.008,0.408-0.008c0.032,0,0.063-0.001,0.095-0.001c0.25,0,0.5,0.007,0.75,0.016
			c0.012,0,0.024,0.001,0.036,0.001c0.26,0.01,0.521,0.023,0.78,0.037c0.344,0.018,0.687,0.035,1.029,0.046
			c0.05,0.038,0.1,0.078,0.151,0.117C15.524,8.826,15.583,8.871,15.642,8.918z"/>
	</a>
	<path id="logoMark__x3C_CompoundPathItem_x3E__00000002343129560675547990000018369057538875220104_" class="st1" d="M9.775,15.318
		c-1.901,0-3.069-0.706-3.474-2.101c-0.559-1.92,1.167-3.349,1.735-3.819c0.16-0.133,0.323-0.25,0.489-0.36l0.128-0.083
		c0.155-0.098,0.312-0.188,0.472-0.269C9.328,8.585,9.5,8.513,9.674,8.447l0.135-0.049c0.154-0.054,0.309-0.104,0.465-0.146
		c0.237-0.063,0.411-0.1,0.586-0.131l0.132-0.022c0.157-0.025,0.307-0.046,0.457-0.062c0.257-0.027,0.43-0.038,0.603-0.047
		l0.118-0.005c0.178-0.006,0.331-0.01,0.481-0.01c0.34,0,0.59,0.006,0.84,0.016l0.824,0.038c0.34,0.017,0.679,0.035,1.017,0.045
		l0.189,0.006l0.258,0.197L15.515,8.82l0.36-0.467l0.263,0.209L15.87,9.103l0.37-0.459l0.247,0.206l-0.279,0.538l0.383-0.449
		l0.227,0.201L16.52,9.668l0.397-0.436l0.142,0.131c0.634,0.608,1.123,1.206,1.504,1.837c0.085,0.141,0.162,0.28,0.235,0.422
		c0.079,0.155,0.145,0.297,0.206,0.442c0.073,0.171,0.126,0.316,0.175,0.462c0.064,0.19,0.104,0.334,0.14,0.48
		c0.053,0.214,0.08,0.355,0.104,0.497c0.04,0.244,0.053,0.378,0.065,0.512l0.015,0.167c0.007,0.109,0.009,0.221,0.01,0.334
		l0.002,0.206l-0.008,0.582l-4.922-0.016c-1.556-0.005-3.125-0.005-4.683,0.028C9.86,15.318,9.817,15.318,9.775,15.318z
		 M10.965,8.701l0.105,0.58c-0.146,0.026-0.292,0.057-0.436,0.094c-0.18,0.05-0.306,0.09-0.431,0.134
		c-0.247,0.092-0.385,0.15-0.521,0.217C9.528,9.805,9.403,9.877,9.28,9.955L9.178,10.02c-0.132,0.088-0.262,0.181-0.39,0.286
		c-1.174,0.972-1.591,1.768-1.355,2.581c0.174,0.598,0.609,1.279,2.447,1.25c1.565-0.033,3.144-0.033,4.709-0.028l4.142,0.015
		l0.169-0.056l-0.587,0.053c-0.01-0.11-0.02-0.22-0.036-0.327c-0.037-0.21-0.058-0.325-0.085-0.437
		c-0.047-0.182-0.079-0.3-0.117-0.414c-0.055-0.161-0.099-0.279-0.147-0.394c-0.062-0.145-0.116-0.262-0.174-0.376
		c-0.068-0.131-0.132-0.247-0.2-0.36c-0.329-0.545-0.755-1.064-1.305-1.591l-1.147-0.976c-0.282-0.011-0.566-0.025-0.849-0.039
		l-0.773-0.036c-0.279-0.01-0.522-0.016-0.765-0.017c-0.221,0.001-0.351,0.004-0.481,0.009L12.08,8.579l0.028,0.589
		c-0.154,0.007-0.307,0.017-0.459,0.032c-0.204,0.023-0.333,0.04-0.461,0.061L10.965,8.701z"/>
	<a xlink:href="40.0454901960784" >
		<path id="logoMark__x3C_PathItem_x3E__00000022522718218699509120000001668317809071113130_" class="st2" d="M20.735,25.85
			c-3.465,0.087-7.047,0.178-10.534-0.538c-1.444-0.297-2.931-0.724-4.095-1.801c0.053,0.006,0.107,0.01,0.16,0.016
			c0.155,0.017,0.311,0.032,0.468,0.046c0.118,0.011,0.235,0.021,0.354,0.031c0.158,0.013,0.317,0.024,0.477,0.034
			c0.119,0.008,0.238,0.015,0.357,0.021c0.159,0.008,0.319,0.012,0.479,0.016c0.12,0.003,0.241,0.007,0.361,0.008
			c0.043,0,0.085,0.003,0.128,0.003c0.075,0,0.151-0.006,0.226-0.007c0.208-0.003,0.417-0.008,0.626-0.019
			c0.122-0.006,0.244-0.015,0.366-0.024c0.205-0.016,0.409-0.037,0.614-0.061c0.121-0.015,0.241-0.029,0.362-0.047
			c0.219-0.033,0.438-0.075,0.657-0.12c0.104-0.021,0.208-0.039,0.312-0.063c0.322-0.075,0.643-0.162,0.963-0.268
			c0.225-0.075,0.444-0.155,0.657-0.242c3.162-1.283,4.963-3.861,5.499-7.853h0.015l0.004-0.123l0.018-0.142l-0.019,0
			c0.002-0.139,0.002-0.279-0.004-0.413c-0.003-0.06-0.011-0.117-0.015-0.176c-0.009-0.117-0.017-0.235-0.032-0.348
			c-0.009-0.069-0.023-0.136-0.034-0.204c-0.016-0.1-0.032-0.2-0.053-0.297c-0.015-0.07-0.034-0.137-0.052-0.206
			c-0.023-0.091-0.046-0.183-0.072-0.271c-0.021-0.069-0.045-0.135-0.068-0.202c-0.029-0.085-0.058-0.169-0.09-0.252
			c-0.026-0.067-0.055-0.132-0.083-0.198c-0.034-0.079-0.069-0.158-0.106-0.235c-0.031-0.065-0.064-0.128-0.098-0.191
			c-0.039-0.075-0.079-0.149-0.12-0.222c-0.036-0.062-0.073-0.123-0.11-0.184c-0.043-0.071-0.087-0.141-0.133-0.209
			c-0.04-0.06-0.08-0.119-0.122-0.177c-0.047-0.067-0.095-0.133-0.144-0.198c-0.043-0.057-0.087-0.114-0.132-0.17
			c-0.051-0.063-0.102-0.126-0.154-0.188c-0.046-0.055-0.093-0.109-0.14-0.162c-0.054-0.061-0.109-0.12-0.164-0.179
			c-0.049-0.052-0.098-0.104-0.147-0.156c-0.056-0.058-0.113-0.114-0.171-0.17c-0.051-0.05-0.101-0.1-0.153-0.148
			c-0.059-0.055-0.118-0.11-0.178-0.164C16.562,9.347,16.51,9.3,16.457,9.253c-0.06-0.053-0.122-0.105-0.183-0.157
			c-0.053-0.045-0.106-0.091-0.159-0.135c-0.063-0.052-0.126-0.103-0.19-0.154c-0.052-0.042-0.104-0.084-0.156-0.126
			c-0.007-0.006-0.014-0.012-0.021-0.017l8.556-0.023c0.078,0.112,0.144,0.227,0.214,0.341c0.064,0.104,0.134,0.206,0.192,0.312
			c0.068,0.124,0.122,0.251,0.181,0.376c0.05,0.107,0.107,0.213,0.152,0.321c0.053,0.127,0.094,0.256,0.139,0.384
			c0.038,0.108,0.082,0.216,0.115,0.325c0.04,0.131,0.07,0.262,0.103,0.393c0.027,0.107,0.06,0.214,0.083,0.321
			c0.029,0.135,0.05,0.27,0.073,0.405c0.018,0.103,0.04,0.206,0.055,0.308c0.021,0.146,0.035,0.291,0.05,0.437
			c0.01,0.09,0.023,0.18,0.031,0.269c0.015,0.171,0.024,0.338,0.033,0.506c0.003,0.062,0.009,0.125,0.012,0.186
			c0.01,0.228,0.015,0.453,0.018,0.673c0.034,2.768,0.033,5.583,0.032,8.305c-0.001,1.102-0.001,2.205,0.001,3.307
			C24.103,25.766,22.392,25.808,20.735,25.85z"/>
	</a>
	<path id="logoMark__x3C_CompoundPathItem_x3E__00000169520095221127301800000009031435907106096319_" class="st1" d="
		M17.242,26.499c-2.379,0-4.783-0.121-7.159-0.609c-1.518-0.312-3.099-0.763-4.377-1.946L4.394,22.73l1.777,0.195l0.07,0.441
		l0.048-0.052l0.04-0.373l2.437,0.152l0.124,0.592l0.009-0.59l0.209-0.006c0.201-0.003,0.402-0.008,0.603-0.018l0.351-0.023
		c0.196-0.015,0.392-0.035,0.588-0.059l0.345-0.045c0.209-0.031,0.417-0.071,0.626-0.114l0.296-0.06
		c0.304-0.071,0.609-0.153,0.912-0.254c0.213-0.071,0.42-0.147,0.621-0.228c2.95-1.197,4.63-3.612,5.137-7.385l0.014-0.106
		l-0.002-0.087c0.001-0.127,0.003-0.255-0.003-0.378l0.574-0.205l-0.588,0.045c-0.009-0.124-0.017-0.221-0.029-0.316l-0.396-1.441
		L17.26,10.93l-1.855-1.785l-1.331-1.048l1.673-0.022l8.865-0.024l0.177,0.254c0.066,0.095,0.125,0.192,0.183,0.288l0.11,0.178
		c0.051,0.08,0.101,0.16,0.146,0.241c0.056,0.103,0.105,0.208,0.153,0.312l0.093,0.195c0.04,0.082,0.08,0.163,0.114,0.246
		c0.043,0.105,0.08,0.21,0.116,0.316l0.072,0.201c0.03,0.081,0.06,0.163,0.085,0.245c0.032,0.106,0.059,0.213,0.086,0.319
		l0.053,0.206c0.021,0.079,0.042,0.157,0.06,0.236c0.024,0.111,0.043,0.221,0.061,0.331l0.074,0.423
		c0.018,0.124,0.031,0.248,0.044,0.371l-0.564,0.258l0.585-0.072l0.02,0.182c0.015,0.17,0.024,0.337,0.033,0.504l0.013,0.214
		c0.01,0.234,0.016,0.465,0.018,0.691c0.034,2.753,0.033,5.552,0.032,8.261l0.002,3.964L25.772,26.4
		c-1.681-0.044-3.379-0.001-5.021,0.04h0l-0.015-0.589l0.006,0.59C19.586,26.469,18.417,26.499,17.242,26.499z M20.712,25.261
		l0.023,0.589l-0.015-0.589c1.462-0.037,2.968-0.075,4.477-0.053l-0.001-2.706c0.001-2.755,0.002-5.549-0.032-8.297
		c-0.003-0.215-0.008-0.433-0.017-0.655l0.577-0.212l-0.589,0.031c-0.009-0.176-0.018-0.33-0.031-0.487l-0.03-0.257
		c-0.021-0.198-0.032-0.306-0.048-0.415l-0.052-0.292c-0.033-0.197-0.049-0.289-0.069-0.381l-0.078-0.3
		c-0.048-0.195-0.069-0.281-0.096-0.366l-0.108-0.301c-0.065-0.19-0.094-0.272-0.128-0.355c-0.024-0.059-0.054-0.117-0.082-0.176
		l-0.058-0.119c-0.085-0.185-0.122-0.266-0.166-0.345c-0.031-0.058-0.068-0.114-0.104-0.171L24.015,9.29
		c-0.013-0.021-0.024-0.04-0.035-0.058L17.321,9.25l1.29,1.531l0.708,1.35c0.034,0.086,0.064,0.173,0.094,0.261l0.08,0.238
		c0.026,0.086,0.049,0.175,0.071,0.264l0.065,0.26c0.02,0.093,0.036,0.188,0.052,0.284l0.044,0.264
		c0.015,0.116,0.025,0.235,0.034,0.355l0.006,0.071l0.096,0l-0.083,0.805l0,0.068l-0.018,0.571H19.68
		c-0.651,3.938-2.547,6.496-5.786,7.81c-0.225,0.091-0.456,0.176-0.693,0.255c-0.337,0.112-0.676,0.203-1.014,0.283l-0.223,0.046
		c-0.334,0.068-0.564,0.112-0.794,0.146l-0.364,0.048c-0.228,0.027-0.441,0.049-0.654,0.066l-0.38,0.025
		c-0.217,0.011-0.433,0.017-0.649,0.02l-0.235,0.007l-0.325-0.007c0.574,0.203,1.169,0.346,1.756,0.466
		C13.738,25.437,17.283,25.347,20.712,25.261z"/>
	<a xlink:href="16.8117647058824" >
		<path id="logoMark__x3C_PathItem_x3E__00000102531534774305721800000001678618270636708010_" class="st3" d="M44.76,126.87
			c-0.033,0.05-0.061,0.105-0.092,0.158c-0.029,0.051-0.061,0.097-0.087,0.151h-5.424c-0.746,0-1.488-0.193-2.205-0.38l-0.211-0.055
			c-6.774-1.639-10.944-7.289-10.882-14.744c0.172-20.816,0.144-41.981,0.117-62.45c-0.01-7.785-0.021-15.571-0.021-23.356h0
			l0-0.137c-0.002-1.147-0.002-2.293-0.001-3.439c0.001-2.72,0.002-5.533-0.032-8.299c-0.02-1.588-0.175-3.398-1.077-5.044
			c-0.128-0.236-0.272-0.469-0.433-0.697c-0.106-0.272-0.221-0.535-0.342-0.789c-0.041-0.087-0.088-0.167-0.131-0.251
			c-0.085-0.167-0.17-0.335-0.261-0.494c-0.055-0.096-0.115-0.185-0.172-0.279c-0.086-0.14-0.171-0.281-0.261-0.415
			c-0.064-0.095-0.133-0.184-0.199-0.276c-0.09-0.124-0.179-0.248-0.273-0.367c-0.072-0.091-0.147-0.178-0.222-0.266
			c-0.094-0.112-0.188-0.223-0.286-0.33c-0.079-0.086-0.161-0.169-0.242-0.252c-0.099-0.101-0.197-0.202-0.299-0.299
			c-0.085-0.081-0.172-0.159-0.259-0.237c-0.103-0.092-0.206-0.184-0.312-0.273c-0.09-0.076-0.182-0.149-0.274-0.222
			c-0.107-0.085-0.215-0.169-0.324-0.25c-0.095-0.07-0.191-0.139-0.288-0.207c-0.111-0.078-0.222-0.154-0.335-0.229
			c-0.099-0.066-0.2-0.13-0.301-0.194C19.52,2.878,19.406,2.808,19.29,2.74c-0.104-0.061-0.208-0.122-0.313-0.181
			c-0.116-0.065-0.233-0.129-0.35-0.191c-0.107-0.057-0.215-0.114-0.323-0.17c-0.117-0.06-0.235-0.118-0.354-0.175
			c-0.112-0.054-0.223-0.109-0.336-0.161c-0.116-0.054-0.233-0.106-0.35-0.158c-0.117-0.052-0.234-0.105-0.352-0.155
			c-0.112-0.048-0.226-0.094-0.339-0.141c-0.124-0.051-0.248-0.103-0.373-0.152c-0.102-0.04-0.205-0.079-0.307-0.118
			c-0.138-0.053-0.276-0.107-0.414-0.158c-0.009-0.003-0.018-0.007-0.027-0.01c0.082-0.004,0.163-0.008,0.245-0.012
			c0.641-0.033,1.305-0.066,1.955-0.066c7.878-0.002,15.752,0.006,23.627,0.014c19.09,0.018,38.83,0.037,58.245-0.083
			c0.028,0,0.055,0,0.083,0c3.657,0,7.148,1.493,9.836,4.209c2.735,2.764,4.286,6.472,4.255,10.174
			c-0.176,21.059-0.133,42.472-0.092,63.181c0.016,7.808,0.031,15.616,0.036,23.424c-0.346,0.006-0.693,0.013-1.039,0.02
			c-0.813,0.016-1.653,0.033-2.479,0.034c-18.946,0.006-37.892,0.009-56.838,0.012l-7.579,0.001
			c-0.109-0.006-0.219-0.009-0.329-0.012c-0.23-0.006-0.468-0.012-0.696-0.044c-4.25-0.595-8.007,0.874-10.358,3.905
			c-0.05,0.065-0.099,0.13-0.148,0.196c-0.257,0.348-0.493,0.718-0.712,1.104c-0.215,0.377-0.418,0.766-0.595,1.179
			c-2.087,4.874-0.836,10.012,3.26,13.404l0.341,0.318h0l0.032,0.03l0.001,0.001l-0.034-0.031l0.855,0.244l-0.621-0.012
			c1.113,1.115,2.633,1.785,4.519,1.991c0.44,0.048,0.883,0.085,1.328,0.113c0.16,0.01,0.32,0.014,0.48,0.022
			c0.285,0.014,0.571,0.031,0.856,0.04c0.018,0.001,0.036,0.001,0.054,0.001c0.871,0.027,1.74,0.033,2.595,0.038
			c0.079,0,0.159,0.002,0.238,0.003c0.579,0.004,1.157,0.01,1.735,0.021c-0.001,0.001-0.002,0.002-0.003,0.003
			c-0.101,0.11-0.212,0.206-0.328,0.296c-0.02,0.015-0.039,0.031-0.059,0.046c-0.114,0.084-0.233,0.161-0.357,0.232
			c-0.025,0.015-0.051,0.029-0.077,0.044c-0.125,0.069-0.254,0.135-0.386,0.198c-0.027,0.013-0.055,0.026-0.082,0.038
			c-0.128,0.06-0.258,0.118-0.391,0.177c-0.006,0.003-0.012,0.005-0.017,0.008c-0.153,0.068-0.307,0.137-0.459,0.209
			c-0.064,0.03-0.129,0.06-0.192,0.092c-0.041,0.021-0.081,0.043-0.121,0.065c-0.066,0.035-0.132,0.068-0.196,0.105
			c-0.043,0.025-0.083,0.053-0.125,0.078c-0.06,0.037-0.121,0.073-0.179,0.114c-0.042,0.029-0.081,0.062-0.122,0.093
			c-0.055,0.042-0.11,0.082-0.163,0.128c-0.04,0.035-0.077,0.074-0.115,0.111c-0.049,0.047-0.099,0.093-0.145,0.145
			c-0.037,0.042-0.071,0.089-0.106,0.134C44.843,126.758,44.799,126.811,44.76,126.87z"/>
	</a>
	<path id="logoMark__x3C_CompoundPathItem_x3E__00000059295134663470547530000016076541176620969602_" class="st1" d="
		M44.582,127.768h-5.424c-0.821,0-1.6-0.203-2.353-0.399l-0.211-0.055c-7.046-1.705-11.388-7.576-11.324-15.32
		c0.172-20.801,0.144-41.954,0.117-62.411c-0.01-7.819-0.021-15.605-0.021-23.39l-0.001-3.576c0.001-2.753,0.002-5.546-0.032-8.292
		c-0.018-1.485-0.152-3.213-1.005-4.767c-0.119-0.218-0.251-0.432-0.399-0.643l-0.066-0.124c-0.101-0.259-0.21-0.508-0.325-0.749
		l-0.124-0.238c-0.093-0.183-0.167-0.329-0.247-0.468l-0.163-0.263c-0.104-0.169-0.173-0.283-0.247-0.392l-0.219-0.303
		c-0.075-0.103-0.149-0.206-0.227-0.305L22.159,5.89c-0.158-0.187-0.241-0.286-0.328-0.38l-0.187-0.196
		c-0.135-0.139-0.229-0.235-0.325-0.327L21.08,4.768c-0.105-0.094-0.203-0.182-0.304-0.266l-0.261-0.211
		c-0.102-0.081-0.205-0.161-0.31-0.239l-2.169-1.329l-2.763-1.19l-2.689-0.997l3.082-0.168c1.427-0.073,2.899-0.068,4.345-0.068
		c7.09,0,14.176,0.007,21.264,0.014l0.391,0C60.631,0.333,80.239,0.351,99.52,0.232c3.902,0,7.544,1.557,10.342,4.384
		c2.845,2.875,4.458,6.736,4.426,10.594c-0.176,21.042-0.134,42.441-0.092,63.135c0.016,7.848,0.031,15.657,0.036,23.465l0,0.58
		l-1.613,0.029c-0.842,0.017-1.675,0.034-2.495,0.034l-64.417,0.013l-0.328-0.011c-0.273-0.007-0.532-0.016-0.779-0.05
		c-3.986-0.558-7.562,0.784-9.811,3.683l-0.14,0.185c-0.243,0.329-0.466,0.68-0.674,1.045c-0.204,0.358-0.397,0.727-0.565,1.119
		c-1.98,4.624-0.795,9.497,3.094,12.718l0.262,0.244l5.075,1.448l-3.29-0.063c0.784,0.406,1.698,0.667,2.733,0.78
		c0.431,0.047,0.866,0.083,1.301,0.111l0.649,0.031c0.223,0.012,0.446,0.023,0.669,0.03c0.919,0.028,1.784,0.034,2.634,0.039
		l0.125,0.001c0.695,0.005,1.276,0.011,1.856,0.023l1.311,0.026l-0.892,0.966c-0.123,0.134-0.258,0.252-0.399,0.362
		c-0.201,0.152-0.339,0.241-0.482,0.323c-0.222,0.124-0.362,0.196-0.506,0.264l-1.131,0.518l-0.385-0.463l0.274,0.522l-0.176,0.094
		l-0.42-0.432l0.31,0.501l-0.153,0.097l-0.458-0.391l0.357,0.469l-0.133,0.104l-0.502-0.334l0.41,0.424l-0.115,0.114l-0.546-0.259
		l0.464,0.364l-0.383,0.604L44.582,127.768z M24.936,8.298c0.157,0.229,0.299,0.461,0.427,0.695c0.977,1.78,1.129,3.688,1.149,5.319
		c0.034,2.751,0.033,5.548,0.032,8.255l0.001,3.626c0,7.786,0.01,15.572,0.021,23.357c0.027,20.492,0.055,41.648-0.117,62.455
		c-0.059,7.167,3.937,12.595,10.431,14.166l0.22,0.057c0.683,0.178,1.387,0.361,2.058,0.361h5.083
		c0.01-0.017,0.019-0.031,0.028-0.045l0,0c0.042-0.063,0.086-0.12,0.132-0.178c0.08-0.104,0.114-0.148,0.15-0.188
		c0.048-0.054,0.099-0.103,0.15-0.152l0.164-0.157c0.053-0.046,0.109-0.089,0.165-0.131l1.032-0.615
		c0.136-0.064,0.255-0.118,0.368-0.169c-0.889-0.006-1.698-0.013-2.508-0.038c-0.285-0.008-0.516-0.02-0.747-0.033l-0.663-0.032
		c-0.453-0.029-0.905-0.066-1.354-0.116c-2.021-0.221-3.661-0.948-4.872-2.161l-0.569-0.543c-0.409-0.339-0.792-0.696-1.146-1.067
		l-0.266-0.248l0.048,0.013c-3.166-3.487-3.965-8.23-2.026-12.758c0.186-0.434,0.399-0.842,0.625-1.239
		c0.246-0.432,0.491-0.812,0.751-1.163l0.156-0.207c2.515-3.242,6.49-4.746,10.906-4.128c0.204,0.029,0.418,0.033,0.624,0.039
		l0.349,0.012l64.387-0.014c0.811,0,1.637-0.017,2.435-0.033l0.493-0.009c-0.005-7.615-0.02-15.23-0.036-22.845
		c-0.041-20.737-0.084-42.138,0.092-63.187c0.029-3.546-1.459-7.101-4.085-9.754c-2.575-2.601-5.919-4.034-9.417-4.034
		c-19.365,0.119-38.975,0.101-57.94,0.083l-0.388,0c-7.7-0.008-15.396-0.015-23.095-0.014l2.076,1.17
		c0.117,0.078,0.234,0.157,0.349,0.238l0.3,0.216c0.115,0.085,0.227,0.173,0.339,0.261l0.287,0.232
		c0.111,0.093,0.219,0.189,0.327,0.286l0.272,0.249c0.107,0.102,0.211,0.208,0.314,0.315l0.254,0.265
		c0.097,0.106,0.19,0.217,0.284,0.327l0.251,0.301c0.088,0.112,0.173,0.228,0.257,0.345l-0.386,0.472l0.475-0.35l0.151,0.211
		c0.084,0.124,0.163,0.253,0.242,0.382l-0.408,0.461l0.499-0.315L24.19,6.75c0.09,0.156,0.173,0.32,0.257,0.484l-0.454,0.405
		l0.52-0.278l0.09,0.175C24.72,7.781,24.831,8.035,24.936,8.298z"/>
	<a xlink:href="40.0454901960784" >
		<path id="logoMark__x3C_PathItem_x3E__00000050659846723074871740000011804474888299775137_" class="st2" d="M47.598,115.472
			c0.059-0.413,0.095-0.843,0.107-1.289c0.315-1.498-0.432-2.564-1.157-3.594c-0.092-0.13-0.184-0.262-0.274-0.394
			c-0.025-0.037-0.049-0.075-0.073-0.112c-0.066-0.098-0.131-0.197-0.193-0.297c-0.031-0.05-0.058-0.101-0.088-0.151
			c-0.052-0.089-0.103-0.179-0.15-0.27c-0.029-0.057-0.055-0.115-0.082-0.173c-0.027-0.057-0.05-0.115-0.074-0.173l0.04-0.001
			l6.619-0.109c0.076,0.126,0.14,0.255,0.211,0.383c0.097,0.175,0.199,0.348,0.285,0.526c0.072,0.148,0.129,0.3,0.194,0.451
			c0.073,0.17,0.152,0.338,0.216,0.509c0.063,0.169,0.11,0.341,0.163,0.512c0.049,0.156,0.106,0.312,0.147,0.469
			c0.053,0.2,0.09,0.403,0.131,0.605c0.027,0.13,0.061,0.26,0.083,0.391c0.042,0.255,0.067,0.513,0.09,0.77
			c0.007,0.079,0.021,0.157,0.027,0.237c0.209,3.05-0.88,6.182-3.138,8.767c-0.096,0.109-0.203,0.213-0.303,0.321
			c-0.156,0.167-0.308,0.337-0.473,0.499c-0.272,0.265-0.557,0.524-0.856,0.774c-0.739-0.017-1.479-0.022-2.219-0.026
			c-0.857-0.005-1.729-0.011-2.602-0.037c-0.022-0.001-0.044-0.001-0.066-0.001c-0.213-0.007-0.426-0.02-0.639-0.029
			c-0.681-0.031-1.361-0.072-2.033-0.145c-0.207-0.022-0.41-0.051-0.608-0.085c-0.065-0.011-0.127-0.026-0.191-0.038
			c-0.131-0.025-0.263-0.05-0.39-0.081c-0.073-0.017-0.144-0.038-0.216-0.058c-0.114-0.03-0.227-0.061-0.338-0.095
			c-0.074-0.023-0.145-0.049-0.218-0.074c-0.103-0.036-0.207-0.072-0.307-0.112c-0.072-0.029-0.142-0.06-0.213-0.09
			c-0.096-0.042-0.191-0.084-0.284-0.13c-0.069-0.034-0.136-0.069-0.203-0.105c-0.09-0.048-0.179-0.097-0.265-0.149
			c-0.064-0.038-0.128-0.078-0.191-0.118c-0.084-0.054-0.167-0.111-0.248-0.169c-0.06-0.043-0.119-0.086-0.177-0.131
			c-0.055-0.042-0.107-0.087-0.16-0.131l-0.158-0.147c0.298-0.004,0.595-0.005,0.892-0.005c1.573-0.001,3.2-0.003,4.763-0.643
			c0.431-0.177,0.831-0.384,1.206-0.614C46.091,119.735,47.254,117.886,47.598,115.472z"/>
	</a>
	<path id="logoMark__x3C_CompoundPathItem_x3E__00000100354369340860908800000009154978384093638071_" class="st1" d="
		M49.257,124.717l-0.222-0.005c-0.72-0.017-1.442-0.021-2.163-0.026c-0.907-0.005-1.784-0.012-2.661-0.038l-0.714-0.031
		c-0.694-0.031-1.386-0.074-2.071-0.148c-0.22-0.024-0.434-0.054-0.644-0.09l-0.137-0.027c-0.206-0.04-0.346-0.067-0.481-0.1
		L40,124.209c-0.192-0.052-0.313-0.084-0.43-0.121l-0.179-0.061c-0.167-0.058-0.278-0.097-0.386-0.14l-0.2-0.085
		c-0.134-0.058-0.238-0.105-0.338-0.154l-0.221-0.114c-0.098-0.052-0.195-0.106-0.29-0.163l-0.209-0.129
		c-0.092-0.06-0.183-0.121-0.272-0.185l-0.553-0.456l-1.08-1.001l1.472-0.022c0.3-0.004,0.601-0.005,0.901-0.005
		c1.517-0.001,3.084-0.003,4.54-0.599c0.382-0.157,0.759-0.349,1.12-0.571c1.763-1.084,2.819-2.772,3.138-5.017l0-0.001
		c0.056-0.391,0.09-0.798,0.101-1.22c0.276-1.356-0.368-2.271-1.05-3.239l-0.356-0.517c-0.07-0.104-0.138-0.209-0.204-0.315
		l-0.067-0.115c-0.085-0.147-0.141-0.246-0.193-0.346l-0.5-1.179l0.858-0.026l6.997-0.115l0.175,0.29
		c0.055,0.091,0.105,0.184,0.155,0.277l0.14,0.255c0.079,0.14,0.158,0.281,0.227,0.424c0.053,0.11,0.1,0.222,0.146,0.334
		l0.121,0.282c0.058,0.131,0.116,0.263,0.165,0.396c0.048,0.131,0.089,0.263,0.129,0.395l0.092,0.291
		c0.038,0.116,0.076,0.232,0.107,0.349c0.045,0.17,0.079,0.341,0.113,0.512l0.055,0.263c0.021,0.092,0.042,0.184,0.057,0.276
		c0.044,0.27,0.071,0.541,0.096,0.812l0.028,0.249c0.223,3.251-0.943,6.517-3.283,9.195c-0.066,0.075-0.136,0.148-0.206,0.22
		l-0.2,0.213c-0.131,0.142-0.262,0.283-0.402,0.42c-0.284,0.277-0.579,0.545-0.89,0.805L49.257,124.717z M39.332,122.746
		l0.108,0.046c0.092,0.037,0.187,0.07,0.282,0.103l0.201,0.069c0.101,0.032,0.205,0.059,0.309,0.087l0.205,0.055
		c0.119,0.028,0.241,0.052,0.364,0.075l0.08,0.617l0.099-0.581c0.187,0.032,0.377,0.059,0.572,0.08
		c0.66,0.072,1.328,0.112,1.996,0.142l0.632,0.029c0.933,0.027,1.8,0.033,2.653,0.039c0.694,0.004,1.351,0.009,2.004,0.022
		c0.227-0.196,0.445-0.396,0.655-0.602c0.125-0.122,0.242-0.25,0.36-0.377l0.219-0.233c0.056-0.058,0.113-0.116,0.166-0.176
		c2.131-2.44,3.195-5.402,2.994-8.338l-0.026-0.223c-0.022-0.243-0.045-0.486-0.085-0.728c-0.011-0.069-0.027-0.137-0.043-0.206
		l-0.062-0.295c-0.029-0.147-0.058-0.294-0.097-0.44c-0.025-0.094-0.056-0.187-0.087-0.28l-0.101-0.32
		c-0.033-0.109-0.066-0.219-0.106-0.327c-0.041-0.111-0.09-0.22-0.138-0.329l-0.132-0.309c-0.037-0.09-0.074-0.181-0.117-0.27
		c-0.059-0.122-0.126-0.241-0.194-0.36l-0.116-0.21l-5.345,0.088c0.035,0.055,0.071,0.109,0.107,0.163l-0.417,0.439l0.487-0.332
		l0.269,0.387c0.76,1.08,1.621,2.303,1.252,4.055c0,0.36-0.038,0.817-0.1,1.251c-0.366,2.572-1.641,4.596-3.688,5.854
		c-0.416,0.256-0.85,0.477-1.291,0.657C41.911,122.597,40.609,122.718,39.332,122.746z M46.182,109.599l-0.175,0.187l0.306-0.189
		L46.182,109.599z"/>
	<a xlink:href="85.5286274509804" >
		<path id="logoMark__x3C_PathItem_x3E__00000119103034302787076220000011158050211769229735_" class="st1" d="M47.457,114.041
			l-1.889-0.007c-1.864-0.006-3.728-0.012-5.592-0.026l-0.166-0.001c-0.903-0.003-1.755-0.005-2.058-1.059
			c-0.254-0.887-0.016-1.704,0.73-2.499c0.138-0.147,0.279-0.28,0.421-0.406c0.045-0.04,0.09-0.076,0.135-0.113
			c0.102-0.085,0.204-0.165,0.308-0.24c0.049-0.036,0.098-0.071,0.148-0.105c0.117-0.078,0.235-0.15,0.354-0.217
			c0.033-0.019,0.065-0.04,0.099-0.058c0.148-0.078,0.298-0.147,0.449-0.21c0.056-0.023,0.112-0.042,0.168-0.062
			c0.102-0.038,0.205-0.073,0.309-0.104c0.066-0.02,0.132-0.038,0.198-0.055c0.103-0.026,0.207-0.049,0.312-0.069
			c0.062-0.012,0.124-0.026,0.187-0.037c0.156-0.025,0.315-0.045,0.476-0.059c0.068-0.006,0.137-0.008,0.206-0.011
			c0.107-0.006,0.214-0.011,0.322-0.012c0.075-0.001,0.15,0,0.226,0.001c0.123,0.002,0.247,0.006,0.373,0.013
			c0.061,0.003,0.121,0.005,0.183,0.01c0.19,0.014,0.383,0.032,0.579,0.057c0.021,0.003,0.043,0.006,0.065,0.009
			c0.199,0.026,0.4,0.055,0.605,0.09c0.011,0.002,0.021,0.004,0.032,0.005c0.222,0.038,0.447,0.081,0.676,0.128
			c0.032,0.084,0.072,0.165,0.109,0.247c0.028,0.063,0.053,0.127,0.084,0.189c0.049,0.097,0.104,0.192,0.159,0.287
			c0.031,0.054,0.059,0.11,0.092,0.163c0.064,0.105,0.132,0.207,0.199,0.309c0.027,0.041,0.053,0.084,0.081,0.125
			c0.096,0.141,0.194,0.281,0.291,0.419c0.089,0.127,0.178,0.253,0.265,0.38c0.019,0.028,0.036,0.055,0.055,0.083
			c0.068,0.1,0.135,0.2,0.198,0.301c0.017,0.027,0.031,0.054,0.048,0.082c0.063,0.103,0.124,0.206,0.18,0.311
			c0.012,0.023,0.022,0.046,0.034,0.069c0.057,0.11,0.111,0.221,0.158,0.335c0.009,0.021,0.015,0.043,0.023,0.064
			c0.045,0.116,0.087,0.234,0.12,0.356c0.007,0.025,0.01,0.051,0.016,0.076c0.029,0.118,0.053,0.238,0.067,0.363
			c0.004,0.038,0.004,0.078,0.006,0.117c0.008,0.111,0.013,0.224,0.009,0.34c-0.003,0.069-0.014,0.142-0.022,0.213
			C47.479,113.9,47.47,113.97,47.457,114.041z"/>
	</a>
	<path id="logoMark__x3C_CompoundPathItem_x3E__00000080165310137405230940000005352201021215102135_" class="st1" d="
		M47.953,114.633l-2.387-0.008c-1.865-0.006-3.729-0.012-5.594-0.026l-0.165-0.001c-0.927-0.003-2.197-0.006-2.622-1.486
		c-0.312-1.088-0.02-2.119,0.867-3.065c0.151-0.161,0.304-0.306,0.459-0.443l0.115-0.097c0.146-0.122,0.259-0.21,0.374-0.293
		l0.165-0.116c0.13-0.087,0.261-0.167,0.394-0.242l0.11-0.064c0.165-0.088,0.333-0.165,0.502-0.234l0.141-0.053
		c0.161-0.059,0.276-0.098,0.392-0.133l0.22-0.062c0.114-0.029,0.229-0.054,0.345-0.077l0.206-0.04
		c0.171-0.028,0.344-0.049,0.52-0.064l0.161-0.01c0.178-0.009,0.293-0.015,0.41-0.016l0.242,0.001
		c0.131,0.002,0.264,0.007,0.397,0.014l0.193,0.011c0.201,0.015,0.403,0.034,0.609,0.06c0.274,0.036,0.483,0.067,0.695,0.103
		c0.262,0.045,0.493,0.088,0.729,0.137l0.319,0.066l0.245,0.599c0.076,0.162,0.12,0.237,0.164,0.313l0.059,0.105
		c0.101,0.171,0.164,0.266,0.227,0.361l-0.409,0.453l0.488-0.331l0.555,0.797c0.128,0.192,0.199,0.297,0.266,0.404
		c0.12,0.2,0.188,0.313,0.249,0.428c0.102,0.202,0.163,0.328,0.217,0.458c0.08,0.21,0.128,0.349,0.167,0.491
		c0.054,0.232,0.082,0.375,0.099,0.524l0.009,0.141c0.01,0.133,0.016,0.268,0.01,0.408c-0.003,0.068-0.011,0.136-0.019,0.204
		c-0.015,0.13-0.025,0.212-0.04,0.297L47.953,114.633z M47.459,113.615l0,0.014l0.05-0.012L47.459,113.615z M38.904,110.044
		l0.391,0.441c-0.129,0.115-0.257,0.235-0.382,0.369c-0.6,0.639-0.788,1.253-0.594,1.932c0.159,0.554,0.444,0.629,1.492,0.632
		l0.167,0.001c1.864,0.013,3.727,0.02,5.591,0.026l1.349,0.005c-0.002-0.043-0.004-0.086-0.007-0.129
		c-0.016-0.194-0.036-0.29-0.059-0.385c-0.039-0.163-0.074-0.26-0.112-0.356c-0.059-0.153-0.107-0.249-0.156-0.344
		c-0.08-0.156-0.136-0.249-0.193-0.342l-0.927-1.372c-0.072-0.108-0.143-0.216-0.21-0.326l-0.069-0.121
		c-0.102-0.178-0.156-0.273-0.205-0.371l-0.07-0.154l0.026-0.021c-0.134-0.026-0.267-0.05-0.399-0.073
		c-0.228-0.039-0.422-0.067-0.613-0.092c-0.248-0.032-0.431-0.049-0.612-0.062l-0.172-0.009c-0.118-0.007-0.234-0.011-0.349-0.012
		l-0.21-0.001c-0.1,0.001-0.199,0.006-0.297,0.011l-0.189,0.01c-0.146,0.012-0.289,0.03-0.431,0.053l-0.168,0.033
		c-0.093,0.018-0.187,0.038-0.279,0.062l-0.177,0.049c-0.092,0.027-0.183,0.059-0.273,0.092l-0.372-0.491l0.224,0.546
		c-0.134,0.055-0.266,0.115-0.396,0.185c-0.193,0.111-0.297,0.174-0.401,0.244l-0.115,0.081c-0.11,0.079-0.202,0.151-0.292,0.227
		L38.904,110.044z M45.267,109.235l-0.009,0.046l0.132-0.103L45.267,109.235z"/>
	<a xlink:href="31.9560784313726" >
		<path id="logoMark__x3C_PathItem_x3E__00000129912526093326770600000004303238209143448200_" class="st4" d="M45.426,108.756
			c-2.486-0.517-5.068-0.689-7.136,1.513c-0.815,0.868-1.075,1.769-0.792,2.753c0.357,1.245,1.396,1.249,2.312,1.251l0.165,0.001
			c1.814,0.013,3.628,0.019,5.441,0.025l2.017,0.007c-0.003,0.085-0.009,0.168-0.014,0.252c-0.006,0.104-0.011,0.209-0.02,0.311
			c-0.009,0.105-0.023,0.207-0.035,0.309c-0.012,0.1-0.022,0.2-0.037,0.298c-0.015,0.101-0.034,0.199-0.052,0.297
			c-0.017,0.096-0.033,0.192-0.053,0.286c-0.021,0.097-0.046,0.191-0.07,0.286c-0.023,0.091-0.044,0.183-0.069,0.272
			c-0.027,0.093-0.058,0.184-0.087,0.275c-0.028,0.087-0.055,0.174-0.085,0.259c-0.032,0.089-0.069,0.175-0.105,0.262
			c-0.033,0.082-0.065,0.166-0.101,0.246c-0.038,0.085-0.08,0.166-0.121,0.249c-0.039,0.078-0.076,0.158-0.117,0.235
			c-0.044,0.08-0.092,0.157-0.138,0.235c-0.044,0.074-0.086,0.15-0.133,0.222c-0.05,0.076-0.104,0.149-0.156,0.223
			c-0.049,0.069-0.096,0.14-0.148,0.208c-0.056,0.072-0.116,0.141-0.174,0.211c-0.054,0.064-0.105,0.131-0.162,0.193
			c-0.062,0.069-0.128,0.133-0.193,0.199c-0.058,0.059-0.114,0.12-0.174,0.178c-0.068,0.065-0.141,0.125-0.212,0.187
			c-0.062,0.054-0.122,0.111-0.187,0.163c-0.076,0.061-0.156,0.118-0.235,0.176c-0.065,0.048-0.128,0.099-0.196,0.145
			c-0.087,0.06-0.179,0.115-0.269,0.171c-0.064,0.04-0.126,0.083-0.192,0.122c-0.1,0.059-0.206,0.112-0.311,0.167
			c-0.061,0.032-0.12,0.067-0.183,0.098c-0.169,0.083-0.344,0.162-0.523,0.235c-1.515,0.621-3.115,0.622-4.663,0.623
			c-0.391,0.001-0.782,0.001-1.173,0.01l-0.15-0.139l0.151,0.14c0,0,0,0,0,0l-0.543-0.504l-0.006-0.005
			c-4.045-3.322-5.279-8.347-3.221-13.113c0.117-0.27,0.243-0.531,0.377-0.786c0.043-0.083,0.091-0.161,0.136-0.242
			c0.094-0.169,0.189-0.337,0.291-0.499c0.057-0.092,0.119-0.179,0.178-0.268c0.097-0.145,0.195-0.288,0.298-0.426
			c0.066-0.089,0.135-0.175,0.203-0.262c0.105-0.132,0.212-0.261,0.323-0.387c0.072-0.082,0.144-0.163,0.218-0.242
			c0.116-0.124,0.236-0.244,0.358-0.362c0.074-0.071,0.147-0.144,0.223-0.212c0.135-0.122,0.274-0.239,0.415-0.353
			c0.069-0.056,0.135-0.114,0.205-0.168c0.18-0.138,0.365-0.269,0.554-0.395c0.035-0.023,0.068-0.05,0.104-0.073
			c0.23-0.149,0.466-0.289,0.708-0.419c0.041-0.022,0.085-0.041,0.127-0.063c0.199-0.103,0.4-0.202,0.606-0.292
			c0.078-0.034,0.159-0.064,0.238-0.097c0.174-0.071,0.349-0.14,0.528-0.202c0.092-0.032,0.186-0.061,0.279-0.09
			c0.171-0.054,0.344-0.105,0.52-0.151c0.099-0.026,0.199-0.05,0.3-0.074c0.176-0.041,0.353-0.077,0.533-0.109
			c0.102-0.018,0.203-0.037,0.306-0.053c0.187-0.028,0.376-0.05,0.566-0.07c0.098-0.01,0.195-0.022,0.294-0.03
			c0.212-0.016,0.427-0.024,0.643-0.03c0.079-0.002,0.157-0.007,0.236-0.008c0.219-0.001,0.441,0.009,0.664,0.019
			c0.089,0.004,0.177,0.003,0.266,0.009c0.312,0.021,0.627,0.053,0.945,0.097c0.244,0.034,0.492,0.04,0.731,0.047
			c0.073,0.002,0.148,0.005,0.223,0.008c0.007,0.042,0.021,0.077,0.03,0.116c0.011,0.048,0.021,0.096,0.036,0.14
			c0.018,0.054,0.041,0.103,0.063,0.152c0.018,0.04,0.035,0.08,0.056,0.117c0.027,0.046,0.058,0.088,0.089,0.13
			c0.024,0.033,0.046,0.067,0.072,0.097c0.035,0.04,0.073,0.076,0.111,0.112c0.028,0.026,0.054,0.055,0.083,0.079
			c0.042,0.035,0.086,0.066,0.13,0.098c0.03,0.021,0.058,0.044,0.088,0.064c0.048,0.032,0.098,0.06,0.149,0.089
			c0.029,0.017,0.057,0.035,0.087,0.051c0.056,0.03,0.113,0.058,0.17,0.086c0.025,0.012,0.049,0.025,0.074,0.037
			c0.081,0.038,0.162,0.075,0.242,0.112l0.159,0.073c0.278,0.129,0.544,0.268,0.801,0.416c0.082,0.048,0.157,0.103,0.237,0.152
			c0.17,0.106,0.341,0.21,0.502,0.325c0.084,0.06,0.16,0.128,0.242,0.191c0.147,0.114,0.296,0.226,0.435,0.349
			c0.077,0.068,0.146,0.143,0.22,0.214c0.134,0.128,0.269,0.254,0.395,0.39c0.069,0.075,0.131,0.156,0.197,0.234
			c0.121,0.142,0.244,0.283,0.357,0.434c0.064,0.086,0.122,0.179,0.184,0.268c0.105,0.151,0.21,0.301,0.307,0.461
			c0.066,0.109,0.126,0.225,0.188,0.338c0.082,0.147,0.164,0.293,0.24,0.447c0.075,0.153,0.143,0.314,0.211,0.473
			c0.042,0.096,0.085,0.192,0.125,0.291L45.426,108.756z"/>
	</a>
	<path id="logoMark__x3C_CompoundPathItem_x3E__00000034059121182695774950000008237779449501476747_" class="st1" d="
		M36.818,122.505l-0.175-0.162l0,0l-0.001-0.001l0,0L36.1,121.84c-4.236-3.478-5.534-8.767-3.368-13.785
		c0.123-0.284,0.256-0.559,0.396-0.826l0.095-0.171c0.147-0.262,0.248-0.439,0.355-0.609l0.142-0.215
		c0.149-0.221,0.253-0.372,0.361-0.518l0.215-0.277c0.111-0.14,0.225-0.276,0.341-0.409l0.231-0.255
		c0.123-0.132,0.25-0.259,0.379-0.383l0.236-0.225c0.143-0.13,0.29-0.253,0.439-0.374l0.217-0.177
		c0.19-0.147,0.387-0.285,0.587-0.418l0.11-0.077c0.243-0.158,0.494-0.306,0.75-0.443l0.134-0.066
		c0.21-0.109,0.423-0.213,0.641-0.309l0.172-0.07c0.264-0.107,0.449-0.18,0.638-0.245l0.241-0.078
		c0.235-0.074,0.417-0.128,0.602-0.176l0.316-0.078c0.185-0.043,0.372-0.081,0.561-0.115l0.322-0.055
		c0.196-0.03,0.395-0.053,0.594-0.074l0.309-0.031c0.223-0.017,0.448-0.026,0.675-0.031l0.248-0.008
		c0.229-0.001,0.461,0.009,0.694,0.02l0.278,0.01c0.326,0.022,0.654,0.055,0.986,0.101c0.22,0.031,0.444,0.035,0.66,0.041
		l0.677,0.025l0.282,0.875l0.256,0.252l0.882,0.462c0.296,0.137,0.579,0.285,0.851,0.442c0.059,0.034,0.114,0.071,0.17,0.108
		l-0.176,0.587l0.311-0.501c0.164,0.102,0.327,0.204,0.482,0.314c0.061,0.044,0.118,0.09,0.176,0.137l-0.278,0.533l0.423-0.418
		c0.137,0.106,0.274,0.212,0.403,0.326c0.056,0.049,0.109,0.102,0.161,0.154l-0.332,0.501l0.454-0.382
		c0.128,0.121,0.255,0.243,0.375,0.373c0.05,0.054,0.097,0.112,0.145,0.169l-0.352,0.498l0.448-0.384
		c0.12,0.14,0.24,0.28,0.351,0.429c0.047,0.063,0.092,0.129,0.136,0.195l-0.424,0.426l0.511-0.298
		c0.103,0.148,0.205,0.296,0.3,0.453c0.051,0.084,0.098,0.171,0.145,0.258l-0.461,0.386l0.55-0.225
		c0.075,0.135,0.15,0.27,0.22,0.412c0.07,0.143,0.134,0.291,0.198,0.439l-0.396,0.3l0,0.028l0.452-0.198l0.419,1.03l-7.647,0.126
		l-0.064-0.013c-2.675-0.557-4.819-0.542-6.586,1.339c-0.67,0.714-0.879,1.409-0.655,2.187c0.213,0.742,0.696,0.821,1.747,0.824
		l0.166,0.001c1.815,0.013,3.628,0.019,5.44,0.025l2.627,0.009l-0.088,1.465l-0.602,0.067l0.586,0.068l-0.074,0.495l-0.605,0.032
		l0.581,0.103l-0.102,0.475l-0.606-0.007l0.573,0.14l-0.13,0.453l-0.605-0.045l0.562,0.179l-0.156,0.429l-0.6-0.089l0.548,0.218
		l-0.183,0.408l-0.592-0.132l0.53,0.258l-0.21,0.385l-0.582-0.175l0.509,0.297l-0.237,0.364l-0.568-0.218l0.485,0.336l-0.262,0.341
		l-0.55-0.261l0.457,0.373l-0.288,0.318l-0.529-0.302l0.426,0.408l-0.312,0.293l-0.507-0.34l0.393,0.44l-0.146,0.126
		c-0.062,0.05-0.127,0.098-0.193,0.146l-0.481-0.377l0.358,0.469l-0.151,0.111c-0.073,0.051-0.15,0.098-0.227,0.146l-0.449-0.414
		l0.321,0.494l-0.145,0.091c-0.089,0.052-0.181,0.1-0.273,0.148l-0.408-0.451l0.285,0.516l-0.135,0.071
		c-0.181,0.089-0.368,0.173-0.56,0.252c-2.037,0.835-4.194,0.632-6.045,0.678L36.818,122.505z M37.054,103.688l0.327,0.491
		c-0.178,0.118-0.352,0.241-0.521,0.371l-0.113,0.092c-0.212,0.174-0.344,0.283-0.47,0.398l-0.166,0.158
		c-0.158,0.153-0.271,0.266-0.381,0.383l-0.206,0.228c-0.104,0.119-0.205,0.241-0.304,0.365l-0.192,0.247
		c-0.097,0.131-0.19,0.266-0.282,0.402l-0.169,0.254c-0.096,0.153-0.186,0.312-0.275,0.472l-0.129,0.229
		c-0.127,0.242-0.247,0.489-0.358,0.746c-1.949,4.515-0.779,9.276,3.054,12.424l0.4,0.369c1.828-0.029,3.696,0.108,5.387-0.585
		c0.167-0.068,0.329-0.141,0.486-0.219l0.169-0.091c0.139-0.073,0.215-0.112,0.287-0.154l2.005-1.848l0.913-1.963l0.287-1.562
		l-1.389-0.005c-1.814-0.006-3.629-0.012-5.444-0.025l-0.163-0.001c-0.954-0.003-2.397-0.007-2.876-1.678
		c-0.34-1.184-0.027-2.301,0.929-3.319c2.256-2.402,5.113-2.215,7.621-1.7l5.769-0.095c-0.05-0.097-0.103-0.192-0.156-0.287
		l-0.096-0.175c-0.038-0.07-0.075-0.14-0.116-0.207c-0.083-0.136-0.172-0.264-0.261-0.393l-0.198-0.289
		c-0.096-0.128-0.199-0.248-0.303-0.369l-0.213-0.253c-0.102-0.11-0.21-0.213-0.319-0.316l-0.253-0.245
		c-0.109-0.097-0.225-0.186-0.341-0.275l-0.288-0.228c-0.133-0.095-0.274-0.183-0.415-0.27l-0.275-0.176
		c-0.241-0.14-0.492-0.27-0.753-0.391l-1.065-0.567c-0.063-0.045-0.116-0.084-0.166-0.126l-0.092-0.085
		c-0.076-0.073-0.124-0.12-0.169-0.172l-0.086-0.112c-0.061-0.083-0.102-0.142-0.139-0.205l-0.07-0.14
		c-0.018-0.038-0.033-0.073-0.047-0.105c-0.199-0.007-0.397-0.019-0.594-0.046c-0.304-0.042-0.605-0.072-0.904-0.093l-0.254-0.009
		c-0.212-0.01-0.424-0.02-0.633-0.019l-0.225,0.008c-0.205,0.005-0.41,0.012-0.612,0.028l-0.183,0.018
		c-0.276,0.029-0.456,0.049-0.633,0.077l-0.275,0.047c-0.184,0.033-0.353,0.067-0.519,0.106l-0.284,0.07
		c-0.166,0.043-0.329,0.092-0.491,0.143l-0.264,0.085c-0.169,0.059-0.334,0.124-0.498,0.191l-0.225,0.091
		c-0.194,0.085-0.384,0.178-0.571,0.275l-0.399-0.461l0.279,0.519c-0.228,0.122-0.45,0.254-0.667,0.394L37.054,103.688z"/>
	<a xlink:href="27.8894117647059" >
		<path id="logoMark__x3C_PathItem_x3E__00000091718175184881588600000002172939517310602663_" class="st5" d="M127.219,117.138
			c-0.9,5.87-5.91,8.7-9.963,10.04H56.664H45.158c0.013-0.024,0.025-0.049,0.039-0.072c0.028-0.047,0.058-0.092,0.088-0.135
			c0.036-0.051,0.072-0.099,0.111-0.146c0.033-0.04,0.067-0.08,0.102-0.117c0.041-0.044,0.084-0.085,0.127-0.126
			c0.037-0.034,0.074-0.069,0.112-0.101c0.046-0.038,0.094-0.075,0.143-0.11c0.04-0.029,0.079-0.059,0.12-0.087
			c0.052-0.035,0.105-0.067,0.159-0.1c0.041-0.025,0.081-0.05,0.123-0.074c0.059-0.033,0.119-0.064,0.18-0.095
			c0.04-0.02,0.078-0.041,0.118-0.061c0.071-0.035,0.144-0.069,0.218-0.102c0.031-0.014,0.061-0.029,0.092-0.043
			c0.104-0.047,0.209-0.093,0.315-0.14c0.132-0.058,0.265-0.117,0.398-0.178c0.511-0.234,1.007-0.501,1.388-0.909
			c0.07-0.074,0.136-0.152,0.199-0.236c0.31-0.258,0.607-0.525,0.889-0.799c0.008-0.008,0.014-0.016,0.022-0.023
			c3.979-3.892,5.111-9.329,2.891-13.855c-0.157-0.321-0.331-0.637-0.521-0.948c-0.742-1.951-1.929-3.47-3.525-4.545
			c-0.416-0.28-0.853-0.537-1.324-0.756l-0.161-0.074c-0.079-0.036-0.156-0.071-0.233-0.107c-0.017-0.008-0.034-0.017-0.051-0.025
			c-0.058-0.028-0.117-0.057-0.173-0.086c-0.026-0.013-0.049-0.028-0.074-0.042c-0.046-0.026-0.093-0.052-0.136-0.08
			c-0.027-0.017-0.052-0.036-0.077-0.054c-0.039-0.027-0.078-0.055-0.114-0.084c-0.026-0.021-0.049-0.044-0.073-0.066
			c-0.033-0.03-0.065-0.061-0.094-0.094c-0.022-0.025-0.043-0.053-0.063-0.08c-0.026-0.035-0.052-0.07-0.074-0.109
			c-0.018-0.03-0.034-0.063-0.049-0.095c-0.019-0.041-0.037-0.083-0.053-0.127c-0.012-0.036-0.023-0.074-0.033-0.113
			c-0.006-0.023-0.009-0.047-0.014-0.071l7.488-0.001c19.122-0.003,38.243-0.006,57.365-0.012c0.836,0,1.686-0.017,2.507-0.034
			c0.392-0.008,0.783-0.016,1.175-0.022c6.786,0.292,11.457,4.022,12.495,9.978C127.474,113.717,127.487,115.39,127.219,117.138z"/>
	</a>
	<path id="logoMark__x3C_CompoundPathItem_x3E__00000078741274899408681940000005852057507690356364_" class="st1" d="
		M117.351,127.768H44.151l0.493-0.878c0.084-0.147,0.121-0.203,0.159-0.257c0.044-0.063,0.09-0.124,0.138-0.182
		c0.041-0.05,0.083-0.099,0.126-0.145c0.051-0.054,0.103-0.105,0.157-0.155l0.136-0.122c0.055-0.046,0.113-0.09,0.171-0.132
		l1.021-0.579l0.805-0.361c0.435-0.2,0.882-0.432,1.203-0.776c0.058-0.061,0.109-0.122,0.158-0.187l0.094-0.099
		c0.298-0.248,0.583-0.504,0.854-0.768c3.813-3.731,4.902-8.902,2.795-13.196c-0.149-0.305-0.314-0.605-0.495-0.9
		c-0.74-1.918-1.852-3.353-3.351-4.364c-0.429-0.289-0.835-0.521-1.243-0.71l-0.996-0.521c-0.051-0.035-0.102-0.072-0.149-0.111
		l-0.101-0.091c-0.046-0.043-0.091-0.087-0.133-0.134l-0.084-0.105c-0.048-0.063-0.085-0.117-0.119-0.173l-0.075-0.142
		c-0.029-0.06-0.055-0.123-0.078-0.189l-0.048-0.163l-0.137-0.703l0.696-0.101l64.853-0.013c0.821,0,1.655-0.017,2.463-0.033
		l1.21-0.022c7.118,0.305,11.997,4.218,13.085,10.466c0.306,1.758,0.32,3.494,0.042,5.306l0,0
		c-0.946,6.168-6.156,9.12-10.361,10.511L117.351,127.768z M46.642,126.589h70.518c3.876-1.299,8.627-4.005,9.476-9.54l0,0
		c0.258-1.684,0.246-3.295-0.038-4.925c-0.987-5.663-5.45-9.211-11.94-9.49l-1.111,0.022c-0.875,0.017-1.717,0.034-2.546,0.034
		l-63.529,0.013l0.394,0.182c0.468,0.217,0.928,0.479,1.409,0.803c1.706,1.149,2.966,2.773,3.746,4.824
		c0.152,0.229,0.335,0.561,0.5,0.899c2.334,4.759,1.154,10.464-3.008,14.535c-0.299,0.293-0.591,0.557-0.895,0.812
		c-0.064,0.081-0.13,0.158-0.199,0.231c-0.459,0.491-1.051,0.801-1.57,1.039l-1.009,0.457l-0.378-0.468l0.269,0.525L46.642,126.589z
		 M46.403,126.589h0.134l-0.377-0.403L46.403,126.589z M46.04,126.589h0.082l-0.241-0.217L46.04,126.589z"/>
	<a xlink:href="38.0803921568627" >
		<path id="logoMark__x3C_PathItem_x3E__00000036247099731421578700000016401188639705579421_" class="st6" d="M104.351,59.619
			c-0.458,0.309-1.192,0.443-2.391,0.434c-7.395-0.053-14.913-0.045-22.185-0.037c-2.721,0.003-5.442,0.006-8.162,0.006
			c-2.705-0.002-5.412-0.004-8.118-0.007c-1.778-0.002-3.572-0.005-5.375-0.006c-5.409-0.004-10.902,0.002-16.326,0.045
			c-1.272,0.008-2.04-0.128-2.515-0.45c-0.478-0.323-0.69-0.861-0.688-1.746c0.002-0.772,0.208-1.271,0.65-1.571
			c0.057-0.039,0.119-0.075,0.185-0.108c0.466-0.233,1.182-0.334,2.315-0.334c0.015,0,0.029,0,0.044,0
			c21.346,0.048,41.025,0.047,60.165-0.004c1.226,0.003,1.957,0.134,2.412,0.443c0.455,0.309,0.657,0.82,0.656,1.657
			C105.018,58.79,104.812,59.308,104.351,59.619z"/>
	</a>
	<path id="logoMark__x3C_CompoundPathItem_x3E__00000037661785964325338250000013888173488989132964_" class="st1" d="
		M41.688,60.645c-1.347,0-2.17-0.166-2.739-0.551c-0.853-0.576-0.949-1.552-0.947-2.236c0.002-0.971,0.299-1.644,0.908-2.057
		c0.078-0.053,0.162-0.102,0.253-0.148c0.557-0.278,1.328-0.396,2.578-0.396c21.322,0.048,41.002,0.047,60.208-0.004
		c1.386,0.003,2.18,0.161,2.745,0.545c0.821,0.558,0.915,1.491,0.915,2.145c-0.001,0.661-0.097,1.605-0.927,2.165l0,0
		c-0.571,0.385-1.386,0.544-2.725,0.535c-7.426-0.054-14.926-0.045-22.18-0.037l-8.163,0.006l-13.494-0.013
		c-5.407-0.004-10.898,0.002-16.321,0.045C41.761,60.645,41.724,60.645,41.688,60.645z M41.783,56.435
		c-1.07,0-1.722,0.087-2.094,0.272c-0.042,0.021-0.081,0.044-0.117,0.068c-0.181,0.123-0.39,0.358-0.391,1.084
		c-0.002,0.851,0.215,1.113,0.428,1.256c0.363,0.245,1.056,0.356,2.181,0.349c5.425-0.044,10.92-0.049,16.33-0.045l13.493,0.013
		l8.161-0.006c7.256-0.008,14.759-0.017,22.19,0.037c1.054,0.008,1.708-0.098,2.057-0.333l0,0c0.201-0.136,0.407-0.383,0.408-1.189
		c0.001-0.791-0.201-1.034-0.398-1.168c-0.338-0.23-1-0.339-2.082-0.341C82.743,56.482,63.062,56.483,41.783,56.435z"/>
	<a xlink:href="38.0803921568627" >
		<path id="logoMark__x3C_PathItem_x3E__00000070119890989603329980000009143411807037080213_" class="st6" d="M41.566,79.169
			c0.012,0,0.025,0,0.038,0c20.247,0.057,40.578,0.056,60.428-0.001c0.013,0,0.026,0,0.04,0c2.474,0,2.909,0.675,2.943,2.181
			c0.018,0.793-0.181,1.306-0.626,1.614c-0.466,0.323-1.214,0.46-2.517,0.448c-7.341-0.051-14.804-0.043-22.023-0.035
			c-5.379,0.006-10.758,0.006-16.137,0c-1.803-0.002-3.622-0.004-5.45-0.005c-5.484-0.003-11.054,0.002-16.555,0.041
			c-1.252,0.011-2.012-0.128-2.471-0.443c-0.454-0.313-0.652-0.818-0.64-1.639C38.615,79.867,39.066,79.169,41.566,79.169z"/>
	</a>
	<path id="logoMark__x3C_CompoundPathItem_x3E__00000054974197318789198280000017152501495602526399_" class="st1" d="
		M41.564,84.002c-1.307,0-2.109-0.166-2.664-0.548c-0.822-0.566-0.904-1.488-0.895-2.133c0.028-1.998,0.993-2.741,3.56-2.741h0.038
		c20.227,0.057,40.557,0.056,60.426-0.001c2.603,0,3.528,0.722,3.574,2.757c0.023,0.995-0.265,1.686-0.88,2.112
		c-0.587,0.406-1.415,0.566-2.858,0.553c-7.37-0.051-14.816-0.043-22.016-0.035c-5.38,0.006-10.759,0.006-16.139,0l-5.449-0.005
		c-5.483-0.003-11.051,0.002-16.551,0.041C41.661,84.001,41.612,84.002,41.564,84.002z M41.566,79.169v0.59
		c-2.359,0-2.368,0.594-2.381,1.579c-0.011,0.768,0.188,1.01,0.385,1.145c0.346,0.238,1.043,0.349,2.131,0.339
		c5.504-0.039,11.075-0.044,16.561-0.041l5.45,0.005c5.379,0.006,10.757,0.006,16.136,0c7.203-0.008,14.651-0.016,22.027,0.035
		c1.132,0.011,1.823-0.098,2.177-0.343c0.182-0.126,0.39-0.368,0.373-1.116c-0.023-1.035-0.036-1.605-2.353-1.605
		c-19.91,0.057-40.242,0.057-60.469,0.001L41.566,79.169z"/>
	<a xlink:href="38.0803921568627" >
		<path id="logoMark__x3C_PathItem_x3E__00000011023559434164574220000011867414199856793776_" class="st6" d="M41.559,67.51
			c0.012,0,0.025,0,0.038,0c20.206,0.056,40.537,0.056,60.429-0.001c0.013,0,0.027,0,0.04,0c2.482,0,2.917,0.666,2.947,2.153
			c0.016,0.789-0.185,1.299-0.634,1.606c-0.462,0.316-1.229,0.452-2.502,0.445c-7.415-0.049-14.955-0.041-22.245-0.034
			c-5.369,0.006-10.739,0.005-16.108,0c-7.15-0.007-14.543-0.016-21.813,0.034c-1.252,0.014-2.012-0.127-2.473-0.441
			c-0.45-0.307-0.654-0.822-0.642-1.622C38.617,68.202,39.067,67.51,41.559,67.51z"/>
	</a>
	<path id="logoMark__x3C_CompoundPathItem_x3E__00000059299580580711792860000008845166327471580084_" class="st1" d="
		M41.549,72.303c-1.273,0-2.093-0.169-2.643-0.544c-0.621-0.423-0.915-1.115-0.9-2.118c0.029-1.984,0.992-2.721,3.553-2.721h0.038
		c20.21,0.056,40.54,0.056,60.427-0.001c2.612,0,3.537,0.714,3.579,2.73c0.021,0.992-0.271,1.681-0.89,2.105
		c-0.573,0.392-1.423,0.556-2.838,0.548c-7.469-0.049-14.979-0.041-22.241-0.034c-5.37,0.006-10.74,0.005-16.109,0l-0.172,0
		c-7.093-0.007-14.427-0.015-21.637,0.035C41.659,72.303,41.604,72.303,41.549,72.303z M41.559,67.51v0.59
		c-2.351,0-2.359,0.587-2.374,1.56c-0.011,0.758,0.2,1,0.385,1.126c0.352,0.24,1.051,0.351,2.135,0.339
		c7.217-0.05,14.553-0.042,21.649-0.035l0.172,0c5.369,0.006,10.738,0.006,16.107,0c7.265-0.008,14.777-0.015,22.25,0.034
		c1.112,0.007,1.82-0.105,2.165-0.342c0.184-0.126,0.393-0.365,0.377-1.107c-0.021-1.016-0.032-1.575-2.358-1.575
		c-19.928,0.056-40.261,0.056-60.471,0.001L41.559,67.51z"/>
	<a xlink:href="38.0803921568627" >
		<path id="logoMark__x3C_PathItem_x3E__00000138539727585372280690000002999711373053127331_" class="st6" d="M104.384,94.627
			c-0.402,0.276-1.044,0.418-2.051,0.44c-0.144,0.003-0.295,0.004-0.455,0.003c-7.345-0.051-14.813-0.043-22.035-0.035
			c-5.369,0.005-10.737,0.006-16.105,0c-7.219-0.008-14.684-0.016-22.026,0.036c-1.25,0.011-2.023-0.127-2.481-0.44
			c-0.447-0.306-0.65-0.82-0.637-1.618c0.024-1.452,0.474-2.145,2.963-2.145c0.012,0,0.025,0,0.038,0
			c10.087,0.028,20.213,0.042,30.308,0.042c10.095,0,20.158-0.014,30.12-0.042c0.013,0,0.026,0,0.039,0
			c2.485,0,2.92,0.667,2.951,2.156C105.031,93.811,104.83,94.321,104.384,94.627z"/>
	</a>
	<path id="logoMark__x3C_CompoundPathItem_x3E__00000000939420427480955330000012584453253724151441_" class="st1" d="M41.577,95.66
		c-1.3,0-2.13-0.169-2.678-0.543c-0.618-0.422-0.91-1.114-0.894-2.115c0.032-1.987,0.995-2.725,3.553-2.725
		c10.126,0.028,20.252,0.043,30.346,0.042c10.094,0,20.157-0.014,30.119-0.042c2.612,0,3.539,0.715,3.581,2.733
		c0.021,0.993-0.269,1.681-0.886,2.104h0c-0.511,0.35-1.243,0.518-2.371,0.543c-0.15,0.003-0.308,0.004-0.474,0.003
		c-7.306-0.05-14.738-0.043-21.925-0.035c-5.472,0.006-10.841,0.006-16.209,0c-7.241-0.008-14.694-0.016-22.021,0.036
		C41.67,95.66,41.623,95.66,41.577,95.66z M41.594,91.456c-2.385,0-2.394,0.589-2.41,1.565c-0.012,0.756,0.197,0.997,0.38,1.122
		c0.347,0.237,1.048,0.347,2.143,0.337c7.333-0.051,14.788-0.043,21.997-0.036c5.402,0.006,10.77,0.006,16.138,0
		c7.293-0.008,14.727-0.015,22.039,0.035c0.154,0.002,0.299,0.001,0.437-0.002c0.862-0.02,1.429-0.13,1.731-0.337
		c0.182-0.125,0.389-0.363,0.374-1.106c-0.021-1.018-0.033-1.578-2.361-1.578c-10.029,0.028-20.123,0.043-30.248,0.042
		C61.749,91.498,51.652,91.484,41.594,91.456z"/>
	<a xlink:href="38.0803921568627" >
		<path id="logoMark__x3C_PathItem_x3E__00000156552611097762475200000013634558404703696806_" class="st6" d="M104.384,47.944
			c-0.402,0.276-1.044,0.418-2.051,0.44c-0.144,0.003-0.295,0.004-0.455,0.002c-7.345-0.051-14.813-0.043-22.035-0.035
			c-5.369,0.005-10.737,0.006-16.105,0c-7.219-0.008-14.684-0.016-22.026,0.036c-1.25,0.011-2.023-0.127-2.481-0.44
			c-0.447-0.306-0.65-0.82-0.637-1.618c0.024-1.452,0.474-2.145,2.963-2.145c0.012,0,0.025,0,0.038,0
			c10.087,0.028,20.213,0.042,30.308,0.042s20.158-0.014,30.12-0.042c0.013,0,0.026,0,0.039,0c2.485,0,2.92,0.667,2.951,2.156
			C105.031,47.128,104.83,47.638,104.384,47.944z"/>
	</a>
	<path id="logoMark__x3C_CompoundPathItem_x3E__00000046313438883685352820000013262074412176843171_" class="st1" d="
		M41.577,48.977c-1.3,0-2.13-0.169-2.678-0.543c-0.618-0.422-0.91-1.114-0.894-2.115c0.032-1.987,0.995-2.725,3.553-2.725
		c10.126,0.028,20.251,0.046,30.346,0.042c10.094,0,20.157-0.014,30.119-0.042c2.612,0,3.539,0.715,3.581,2.733
		c0.021,0.993-0.269,1.681-0.886,2.104l0,0c-0.511,0.35-1.243,0.518-2.371,0.543c-0.15,0.003-0.308,0.004-0.474,0.003
		c-7.306-0.05-14.738-0.043-21.925-0.035c-5.472,0.006-10.841,0.006-16.209,0c-7.241-0.008-14.694-0.016-22.021,0.036
		C41.67,48.977,41.623,48.977,41.577,48.977z M41.594,44.773c-2.385,0-2.394,0.589-2.41,1.565c-0.012,0.756,0.197,0.997,0.38,1.122
		c0.347,0.237,1.048,0.347,2.143,0.337c7.333-0.051,14.788-0.043,21.997-0.036c5.402,0.006,10.77,0.006,16.138,0
		c7.293-0.008,14.727-0.015,22.039,0.035c0.154,0.002,0.299,0.001,0.437-0.002c0.862-0.019,1.429-0.13,1.731-0.337l0,0
		c0.182-0.125,0.389-0.363,0.374-1.106c-0.021-1.018-0.033-1.578-2.361-1.578c-10.033,0.028-20.13,0.044-30.261,0.042
		C61.74,44.815,51.648,44.801,41.594,44.773z"/>
	<a xlink:href="38.0803921568627" >
		<path id="logoMark__x3C_PathItem_x3E__00000143618639670750927520000016273120597916300686_" class="st6" d="M104.384,36.285
			c-0.402,0.276-1.044,0.418-2.051,0.44c-0.144,0.003-0.295,0.004-0.455,0.002c-7.345-0.051-14.813-0.043-22.035-0.035
			c-5.369,0.005-10.737,0.006-16.105,0c-7.219-0.008-14.684-0.016-22.026,0.036c-1.25,0.011-2.023-0.127-2.481-0.44
			c-0.447-0.306-0.65-0.82-0.637-1.618c0.024-1.452,0.474-2.145,2.963-2.145c0.012,0,0.025,0,0.038,0
			c10.087,0.028,20.213,0.042,30.308,0.042s20.158-0.014,30.12-0.042c0.013,0,0.026,0,0.039,0c2.485,0,2.92,0.667,2.951,2.156
			C105.031,35.469,104.83,35.979,104.384,36.285z"/>
	</a>
	<path id="logoMark__x3C_CompoundPathItem_x3E__00000106828785499454108110000015400700674774427535_" class="st1" d="
		M41.577,37.319c-1.3,0-2.13-0.169-2.678-0.543c-0.618-0.422-0.91-1.114-0.894-2.115c0.032-1.987,0.995-2.725,3.553-2.725
		c10.126,0.028,20.252,0.043,30.346,0.042c10.094,0,20.157-0.014,30.119-0.042c2.612,0,3.539,0.715,3.581,2.733
		c0.021,0.993-0.269,1.681-0.886,2.104l0,0c-0.511,0.35-1.243,0.518-2.371,0.543c-0.15,0.003-0.308,0.004-0.474,0.003
		c-7.306-0.05-14.738-0.043-21.925-0.035c-5.472,0.006-10.84,0.006-16.209,0c-7.241-0.008-14.694-0.016-22.021,0.036
		C41.67,37.318,41.623,37.319,41.577,37.319z M41.594,33.115c-2.385,0-2.394,0.589-2.41,1.565c-0.012,0.756,0.197,0.997,0.38,1.122
		c0.347,0.237,1.048,0.347,2.143,0.337c7.333-0.051,14.788-0.043,21.997-0.036c5.402,0.006,10.77,0.006,16.138,0
		c7.293-0.008,14.727-0.015,22.039,0.035c0.154,0.002,0.299,0.001,0.437-0.002c0.862-0.02,1.429-0.13,1.731-0.337h0
		c0.182-0.125,0.389-0.363,0.374-1.106c-0.021-1.018-0.033-1.578-2.361-1.578c-10.029,0.028-20.123,0.042-30.248,0.042
		C61.749,33.156,51.652,33.142,41.594,33.115z"/>
	<a xlink:href="38.0803921568627" >
		<path id="logoMark__x3C_PathItem_x3E__00000106120623135217113390000009995263511714648250_" class="st6" d="M104.384,24.627
			c-0.402,0.276-1.044,0.418-2.051,0.44c-0.144,0.003-0.295,0.004-0.455,0.002c-7.345-0.051-14.813-0.043-22.035-0.035
			c-5.369,0.005-10.737,0.006-16.105,0c-7.219-0.008-14.684-0.016-22.026,0.036c-1.25,0.011-2.023-0.127-2.481-0.44
			c-0.447-0.306-0.65-0.82-0.637-1.618c0.024-1.452,0.474-2.145,2.963-2.145c0.012,0,0.025,0,0.038,0
			c10.087,0.028,20.213,0.042,30.308,0.042c10.095,0,20.158-0.014,30.12-0.042c0.013,0,0.026,0,0.039,0
			c2.485,0,2.92,0.667,2.951,2.156C105.031,23.811,104.83,24.321,104.384,24.627z"/>
	</a>
	<path id="logoMark__x3C_CompoundPathItem_x3E__00000003800597820367416410000016501218074625833644_" class="st1" d="M41.578,25.66
		c-1.3,0-2.13-0.169-2.678-0.543c-0.618-0.422-0.91-1.114-0.894-2.115c0.032-1.987,0.995-2.725,3.553-2.725
		c10.126,0.028,20.252,0.043,30.346,0.042c10.094,0,20.157-0.014,30.119-0.042c2.612,0,3.539,0.715,3.581,2.733
		c0.021,0.993-0.269,1.681-0.886,2.104l0,0c-0.511,0.35-1.243,0.518-2.371,0.543c-0.15,0.003-0.308,0.004-0.474,0.003
		c-7.31-0.051-14.747-0.043-21.939-0.035c-5.459,0.006-10.827,0.006-16.196,0c-7.241-0.008-14.694-0.016-22.021,0.036
		C41.67,25.66,41.623,25.66,41.578,25.66z M41.594,21.456c-2.385,0-2.394,0.589-2.41,1.565c-0.012,0.756,0.197,0.997,0.38,1.122
		c0.347,0.237,1.048,0.347,2.143,0.337c7.333-0.051,14.788-0.043,21.997-0.036c5.402,0.006,10.77,0.006,16.138,0
		c7.284-0.008,14.722-0.016,22.039,0.035c0.154,0.002,0.299,0.001,0.437-0.002c0.862-0.02,1.429-0.13,1.731-0.337h0
		c0.182-0.125,0.389-0.363,0.374-1.106c-0.021-1.018-0.033-1.578-2.361-1.578c-10.029,0.028-20.123,0.045-30.248,0.042
		C61.749,21.498,51.652,21.484,41.594,21.456z"/>
</g>
<g>
</g>
<g>
</g>
<g>
</g>
<g>
</g>
<g>
</g>
</svg>
